M48
; DRILL file {KiCad (5.1.9)-1} date 03/06/21 13:41:06
; FORMAT={-:-/ absolute / inch / decimal}
; #@! TF.CreationDate,2021-03-06T13:41:06+06:00
; #@! TF.GenerationSoftware,Kicad,Pcbnew,(5.1.9)-1
; #@! TF.FileFunction,Plated,1,2,PTH
FMAT,2
INCH
T1C0.0157
T2C0.0295
T3C0.0315
T4C0.0354
T5C0.0394
T6C0.0402
T7C0.0433
%
G90
G05
T1
X7.4803Y-4.4094
X7.5197Y-3.5827
X7.5984Y-3.4646
X7.5984Y-3.5827
X7.7559Y-3.937
X8.3071Y-4.0945
X8.4646Y-3.6614
X8.5039Y-3.8976
X8.622Y-4.1732
X8.7402Y-3.7795
X8.7795Y-4.1732
X8.9764Y-4.3307
X9.0546Y-4.2121
X9.1339Y-4.0945
X9.5837Y-3.7126
X9.7638Y-3.7402
X9.7638Y-3.9764
X9.842Y-4.3706
T2
X9.6457Y-4.0157
X9.6457Y-4.0657
X9.6457Y-4.1157
T3
X7.6378Y-3.6614
X7.6378Y-4.0614
X7.9134Y-3.6614
X7.9134Y-4.0614
X8.189Y-3.6614
X8.189Y-4.0614
X8.4646Y-3.6614
X8.4646Y-4.0614
X8.7402Y-3.6614
X8.7402Y-4.0614
X10.6693Y-4.1535
X10.6693Y-4.252
T4
X7.874Y-4.5276
X7.974Y-4.5276
X8.074Y-4.5276
T5
X7.4598Y-3.3018
X7.4598Y-4.302
X7.5197Y-4.5276
X7.5598Y-3.3018
X7.5598Y-4.302
X7.6181Y-4.5276
X7.6598Y-3.3018
X7.6598Y-4.302
X7.7598Y-3.3018
X7.7598Y-4.302
X7.8598Y-3.3018
X7.8598Y-4.302
X7.9598Y-3.3018
X7.9598Y-4.302
X8.0598Y-3.3018
X8.0598Y-4.302
X8.1598Y-3.3018
X8.1598Y-4.302
X8.2598Y-3.3018
X8.2598Y-4.302
X8.3598Y-3.3018
X8.3598Y-4.302
X8.4598Y-3.3018
X8.4598Y-4.302
X8.5598Y-3.3018
X8.5598Y-4.302
X8.6598Y-3.3018
X8.6598Y-4.302
X8.7598Y-3.3018
X8.7598Y-4.302
X8.8598Y-3.3018
X8.8598Y-4.302
X9.252Y-3.4646
X9.3307Y-3.9732
X9.3307Y-4.0732
X9.3307Y-4.1732
X9.4094Y-4.5276
X9.5512Y-3.4646
X9.8031Y-4.5276
X10.0394Y-4.2126
X10.0394Y-4.5276
X10.3543Y-3.2677
X10.3543Y-3.8677
X10.4331Y-4.2126
X10.4331Y-4.5276
X10.6693Y-3.2583
X10.6693Y-3.8583
T6
X8.9051Y-4.5669
X9.0051Y-4.5669
X9.1051Y-4.5669
X9.2051Y-4.5669
T7
X9.7244Y-3.3071
X9.7244Y-3.5827
X9.7244Y-3.8583
X10.1244Y-3.3071
X10.1244Y-3.5827
X10.1244Y-3.8583
T0
M30
