%TF.GenerationSoftware,KiCad,Pcbnew,(5.1.9)-1*%
%TF.CreationDate,2021-03-06T13:39:36+06:00*%
%TF.ProjectId,Geiger,47656967-6572-42e6-9b69-6361645f7063,v01*%
%TF.SameCoordinates,Original*%
%TF.FileFunction,Copper,L1,Top*%
%TF.FilePolarity,Positive*%
%FSLAX46Y46*%
G04 Gerber Fmt 4.6, Leading zero omitted, Abs format (unit mm)*
G04 Created by KiCad (PCBNEW (5.1.9)-1) date 2021-03-06 13:39:36*
%MOMM*%
%LPD*%
G01*
G04 APERTURE LIST*
%TA.AperFunction,NonConductor*%
%ADD10C,0.300000*%
%TD*%
%TA.AperFunction,NonConductor*%
%ADD11C,0.600000*%
%TD*%
%TA.AperFunction,ComponentPad*%
%ADD12R,2.000000X2.000000*%
%TD*%
%TA.AperFunction,ComponentPad*%
%ADD13C,2.000000*%
%TD*%
%TA.AperFunction,ComponentPad*%
%ADD14C,1.600000*%
%TD*%
%TA.AperFunction,ComponentPad*%
%ADD15R,1.800000X1.800000*%
%TD*%
%TA.AperFunction,ComponentPad*%
%ADD16C,1.800000*%
%TD*%
%TA.AperFunction,ComponentPad*%
%ADD17R,2.200000X2.200000*%
%TD*%
%TA.AperFunction,ComponentPad*%
%ADD18O,2.200000X2.200000*%
%TD*%
%TA.AperFunction,ComponentPad*%
%ADD19O,1.700000X2.000000*%
%TD*%
%TA.AperFunction,ComponentPad*%
%ADD20O,2.000000X2.000000*%
%TD*%
%TA.AperFunction,ComponentPad*%
%ADD21O,1.800000X1.800000*%
%TD*%
%TA.AperFunction,ComponentPad*%
%ADD22O,1.500000X1.050000*%
%TD*%
%TA.AperFunction,ComponentPad*%
%ADD23R,1.500000X1.050000*%
%TD*%
%TA.AperFunction,ComponentPad*%
%ADD24O,1.600000X1.600000*%
%TD*%
%TA.AperFunction,ComponentPad*%
%ADD25C,1.530000*%
%TD*%
%TA.AperFunction,ComponentPad*%
%ADD26C,1.930400*%
%TD*%
%TA.AperFunction,ViaPad*%
%ADD27C,0.800000*%
%TD*%
%TA.AperFunction,Conductor*%
%ADD28C,0.250000*%
%TD*%
%TA.AperFunction,Conductor*%
%ADD29C,0.254000*%
%TD*%
%TA.AperFunction,Conductor*%
%ADD30C,0.100000*%
%TD*%
G04 APERTURE END LIST*
D10*
X273214285Y-130678571D02*
X273571428Y-131678571D01*
X273928571Y-130678571D01*
X274785714Y-130178571D02*
X274928571Y-130178571D01*
X275071428Y-130250000D01*
X275142857Y-130321428D01*
X275214285Y-130464285D01*
X275285714Y-130750000D01*
X275285714Y-131107142D01*
X275214285Y-131392857D01*
X275142857Y-131535714D01*
X275071428Y-131607142D01*
X274928571Y-131678571D01*
X274785714Y-131678571D01*
X274642857Y-131607142D01*
X274571428Y-131535714D01*
X274500000Y-131392857D01*
X274428571Y-131107142D01*
X274428571Y-130750000D01*
X274500000Y-130464285D01*
X274571428Y-130321428D01*
X274642857Y-130250000D01*
X274785714Y-130178571D01*
X276714285Y-131678571D02*
X275857142Y-131678571D01*
X276285714Y-131678571D02*
X276285714Y-130178571D01*
X276142857Y-130392857D01*
X276000000Y-130535714D01*
X275857142Y-130607142D01*
D11*
X256107142Y-127011904D02*
X256464285Y-127130952D01*
X257059523Y-127130952D01*
X257297619Y-127011904D01*
X257416666Y-126892857D01*
X257535714Y-126654761D01*
X257535714Y-126416666D01*
X257416666Y-126178571D01*
X257297619Y-126059523D01*
X257059523Y-125940476D01*
X256583333Y-125821428D01*
X256345238Y-125702380D01*
X256226190Y-125583333D01*
X256107142Y-125345238D01*
X256107142Y-125107142D01*
X256226190Y-124869047D01*
X256345238Y-124750000D01*
X256583333Y-124630952D01*
X257178571Y-124630952D01*
X257535714Y-124750000D01*
X258607142Y-127130952D02*
X258607142Y-125464285D01*
X258607142Y-125702380D02*
X258726190Y-125583333D01*
X258964285Y-125464285D01*
X259321428Y-125464285D01*
X259559523Y-125583333D01*
X259678571Y-125821428D01*
X259678571Y-127130952D01*
X259678571Y-125821428D02*
X259797619Y-125583333D01*
X260035714Y-125464285D01*
X260392857Y-125464285D01*
X260630952Y-125583333D01*
X260750000Y-125821428D01*
X260750000Y-127130952D01*
X263011904Y-127130952D02*
X263011904Y-125821428D01*
X262892857Y-125583333D01*
X262654761Y-125464285D01*
X262178571Y-125464285D01*
X261940476Y-125583333D01*
X263011904Y-127011904D02*
X262773809Y-127130952D01*
X262178571Y-127130952D01*
X261940476Y-127011904D01*
X261821428Y-126773809D01*
X261821428Y-126535714D01*
X261940476Y-126297619D01*
X262178571Y-126178571D01*
X262773809Y-126178571D01*
X263011904Y-126059523D01*
X264202380Y-127130952D02*
X264202380Y-125464285D01*
X264202380Y-125940476D02*
X264321428Y-125702380D01*
X264440476Y-125583333D01*
X264678571Y-125464285D01*
X264916666Y-125464285D01*
X265392857Y-125464285D02*
X266345238Y-125464285D01*
X265750000Y-124630952D02*
X265750000Y-126773809D01*
X265869047Y-127011904D01*
X266107142Y-127130952D01*
X266345238Y-127130952D01*
X268488095Y-124750000D02*
X268250000Y-124630952D01*
X267892857Y-124630952D01*
X267535714Y-124750000D01*
X267297619Y-124988095D01*
X267178571Y-125226190D01*
X267059523Y-125702380D01*
X267059523Y-126059523D01*
X267178571Y-126535714D01*
X267297619Y-126773809D01*
X267535714Y-127011904D01*
X267892857Y-127130952D01*
X268130952Y-127130952D01*
X268488095Y-127011904D01*
X268607142Y-126892857D01*
X268607142Y-126059523D01*
X268130952Y-126059523D01*
X270630952Y-127011904D02*
X270392857Y-127130952D01*
X269916666Y-127130952D01*
X269678571Y-127011904D01*
X269559523Y-126773809D01*
X269559523Y-125821428D01*
X269678571Y-125583333D01*
X269916666Y-125464285D01*
X270392857Y-125464285D01*
X270630952Y-125583333D01*
X270750000Y-125821428D01*
X270750000Y-126059523D01*
X269559523Y-126297619D01*
X271821428Y-127130952D02*
X271821428Y-125464285D01*
X271821428Y-124630952D02*
X271702380Y-124750000D01*
X271821428Y-124869047D01*
X271940476Y-124750000D01*
X271821428Y-124630952D01*
X271821428Y-124869047D01*
X274083333Y-125464285D02*
X274083333Y-127488095D01*
X273964285Y-127726190D01*
X273845238Y-127845238D01*
X273607142Y-127964285D01*
X273250000Y-127964285D01*
X273011904Y-127845238D01*
X274083333Y-127011904D02*
X273845238Y-127130952D01*
X273369047Y-127130952D01*
X273130952Y-127011904D01*
X273011904Y-126892857D01*
X272892857Y-126654761D01*
X272892857Y-125940476D01*
X273011904Y-125702380D01*
X273130952Y-125583333D01*
X273369047Y-125464285D01*
X273845238Y-125464285D01*
X274083333Y-125583333D01*
X276226190Y-127011904D02*
X275988095Y-127130952D01*
X275511904Y-127130952D01*
X275273809Y-127011904D01*
X275154761Y-126773809D01*
X275154761Y-125821428D01*
X275273809Y-125583333D01*
X275511904Y-125464285D01*
X275988095Y-125464285D01*
X276226190Y-125583333D01*
X276345238Y-125821428D01*
X276345238Y-126059523D01*
X275154761Y-126297619D01*
X277416666Y-127130952D02*
X277416666Y-125464285D01*
X277416666Y-125940476D02*
X277535714Y-125702380D01*
X277654761Y-125583333D01*
X277892857Y-125464285D01*
X278130952Y-125464285D01*
D12*
%TO.P,BZ1,1*%
%TO.N,Net-(BZ1-Pad1)*%
X235000000Y-88000000D03*
D13*
%TO.P,BZ1,2*%
%TO.N,Net-(BZ1-Pad2)*%
X242600000Y-88000000D03*
%TD*%
%TO.P,C1,2*%
%TO.N,GND*%
X265000000Y-115000000D03*
%TO.P,C1,1*%
%TO.N,Net-(C1-Pad1)*%
X255000000Y-115000000D03*
%TD*%
%TO.P,C2,1*%
%TO.N,Net-(C2-Pad1)*%
X239000000Y-115000000D03*
%TO.P,C2,2*%
%TO.N,Net-(C2-Pad2)*%
X249000000Y-115000000D03*
%TD*%
%TO.P,C3,1*%
%TO.N,Net-(C3-Pad1)*%
X255000000Y-107000000D03*
%TO.P,C3,2*%
%TO.N,GND*%
X265000000Y-107000000D03*
%TD*%
D14*
%TO.P,C4,1*%
%TO.N,Net-(C4-Pad1)*%
X271000000Y-108000000D03*
%TO.P,C4,2*%
%TO.N,GND*%
X271000000Y-105500000D03*
%TD*%
D15*
%TO.P,D1,1*%
%TO.N,Net-(D1-Pad1)*%
X200000000Y-115000000D03*
D16*
%TO.P,D1,2*%
%TO.N,GND*%
X202540000Y-115000000D03*
%TO.P,D1,3*%
%TO.N,Net-(D1-Pad3)*%
X205080000Y-115000000D03*
%TD*%
D17*
%TO.P,D2,1*%
%TO.N,Net-(C1-Pad1)*%
X247000000Y-98000000D03*
D18*
%TO.P,D2,2*%
%TO.N,Net-(D2-Pad2)*%
X257160000Y-98000000D03*
%TD*%
D17*
%TO.P,D3,1*%
%TO.N,Net-(C2-Pad2)*%
X247000000Y-84000000D03*
D18*
%TO.P,D3,2*%
%TO.N,Net-(C1-Pad1)*%
X257160000Y-84000000D03*
%TD*%
%TO.P,D4,2*%
%TO.N,Net-(C2-Pad2)*%
X257160000Y-91000000D03*
D17*
%TO.P,D4,1*%
%TO.N,Net-(C3-Pad1)*%
X247000000Y-91000000D03*
%TD*%
%TO.P,J1,1*%
%TO.N,Net-(J1-Pad1)*%
%TA.AperFunction,ComponentPad*%
G36*
G01*
X190150000Y-115750000D02*
X190150000Y-114250000D01*
G75*
G02*
X190400000Y-114000000I250000J0D01*
G01*
X191600000Y-114000000D01*
G75*
G02*
X191850000Y-114250000I0J-250000D01*
G01*
X191850000Y-115750000D01*
G75*
G02*
X191600000Y-116000000I-250000J0D01*
G01*
X190400000Y-116000000D01*
G75*
G02*
X190150000Y-115750000I0J250000D01*
G01*
G37*
%TD.AperFunction*%
D19*
%TO.P,J1,2*%
%TO.N,Net-(C4-Pad1)*%
X193500000Y-115000000D03*
%TD*%
D20*
%TO.P,L1,2*%
%TO.N,Net-(D2-Pad2)*%
X271000000Y-82760000D03*
D13*
%TO.P,L1,1*%
%TO.N,VCC*%
X271000000Y-98000000D03*
%TD*%
%TO.P,L2,1*%
%TO.N,Net-(D2-Pad2)*%
X263000000Y-98240000D03*
D20*
%TO.P,L2,2*%
%TO.N,Net-(C2-Pad1)*%
X263000000Y-83000000D03*
%TD*%
D15*
%TO.P,Q1,1*%
%TO.N,Net-(Q1-Pad1)*%
X237000000Y-106000000D03*
D21*
%TO.P,Q1,2*%
%TO.N,Net-(D2-Pad2)*%
X237000000Y-103460000D03*
%TO.P,Q1,3*%
%TO.N,GND*%
X237000000Y-100920000D03*
%TD*%
D22*
%TO.P,Q2,2*%
%TO.N,Net-(Q2-Pad2)*%
X245000000Y-103270000D03*
%TO.P,Q2,3*%
%TO.N,Net-(Q2-Pad3)*%
X245000000Y-102000000D03*
D23*
%TO.P,Q2,1*%
%TO.N,GND*%
X245000000Y-104540000D03*
%TD*%
D14*
%TO.P,R1,1*%
%TO.N,Net-(R1-Pad1)*%
X194000000Y-93000000D03*
D24*
%TO.P,R1,2*%
%TO.N,Net-(Q1-Pad1)*%
X194000000Y-103160000D03*
%TD*%
D14*
%TO.P,R2,1*%
%TO.N,Net-(C3-Pad1)*%
X201000000Y-93000000D03*
D24*
%TO.P,R2,2*%
%TO.N,Net-(J1-Pad1)*%
X201000000Y-103160000D03*
%TD*%
%TO.P,R3,2*%
%TO.N,Net-(Q2-Pad2)*%
X215000000Y-103160000D03*
D14*
%TO.P,R3,1*%
%TO.N,Net-(C4-Pad1)*%
X215000000Y-93000000D03*
%TD*%
D24*
%TO.P,R4,2*%
%TO.N,GND*%
X222000000Y-103160000D03*
D14*
%TO.P,R4,1*%
%TO.N,Net-(Q2-Pad2)*%
X222000000Y-93000000D03*
%TD*%
%TO.P,R5,1*%
%TO.N,VCC*%
X208000000Y-93000000D03*
D24*
%TO.P,R5,2*%
%TO.N,Net-(Q2-Pad3)*%
X208000000Y-103160000D03*
%TD*%
D25*
%TO.P,U1,2*%
%TO.N,Net-(U1-Pad2)*%
X228730000Y-116000000D03*
%TO.P,U1,3*%
%TO.N,Net-(U1-Pad3)*%
X231270000Y-116000000D03*
%TO.P,U1,4*%
%TO.N,GND*%
X233810000Y-116000000D03*
%TO.P,U1,1*%
%TO.N,VCC*%
X226190000Y-116000000D03*
%TD*%
D26*
%TO.P,U2,3V3*%
%TO.N,Net-(U2-Pad3V3)*%
X189480000Y-109270000D03*
%TO.P,U2,GND@2*%
%TO.N,GND*%
X192020000Y-109270000D03*
%TO.P,U2,D15*%
%TO.N,Net-(Q2-Pad3)*%
X194560000Y-109270000D03*
%TO.P,U2,D2*%
%TO.N,Net-(BZ1-Pad1)*%
X197100000Y-109270000D03*
%TO.P,U2,D4*%
%TO.N,Net-(BZ1-Pad2)*%
X199640000Y-109270000D03*
%TO.P,U2,D16*%
%TO.N,Net-(U2-PadD16)*%
X202180000Y-109270000D03*
%TO.P,U2,D17*%
%TO.N,Net-(U2-PadD17)*%
X204720000Y-109270000D03*
%TO.P,U2,D5*%
%TO.N,Net-(U2-PadD5)*%
X207260000Y-109270000D03*
%TO.P,U2,D18*%
%TO.N,Net-(U1-Pad3)*%
X209800000Y-109270000D03*
%TO.P,U2,D19*%
%TO.N,Net-(U1-Pad2)*%
X212340000Y-109270000D03*
%TO.P,U2,D21*%
%TO.N,Net-(U2-PadD21)*%
X214880000Y-109270000D03*
%TO.P,U2,D3*%
%TO.N,Net-(U2-PadD3)*%
X217420000Y-109270000D03*
%TO.P,U2,D1*%
%TO.N,Net-(U2-PadD1)*%
X219960000Y-109270000D03*
%TO.P,U2,D22*%
%TO.N,Net-(D1-Pad1)*%
X222500000Y-109270000D03*
%TO.P,U2,D23*%
%TO.N,Net-(D1-Pad3)*%
X225040000Y-109270000D03*
%TO.P,U2,VIN*%
%TO.N,VCC*%
X189480000Y-83865000D03*
%TO.P,U2,GND@1*%
%TO.N,GND*%
X192020000Y-83865000D03*
%TO.P,U2,D13*%
%TO.N,Net-(U2-PadD13)*%
X194560000Y-83865000D03*
%TO.P,U2,D12*%
%TO.N,Net-(R1-Pad1)*%
X197100000Y-83865000D03*
%TO.P,U2,D14*%
%TO.N,Net-(U2-PadD14)*%
X199640000Y-83865000D03*
%TO.P,U2,D27*%
%TO.N,Net-(U2-PadD27)*%
X202180000Y-83865000D03*
%TO.P,U2,D26*%
%TO.N,Net-(U2-PadD26)*%
X204720000Y-83865000D03*
%TO.P,U2,D25*%
%TO.N,Net-(U2-PadD25)*%
X207260000Y-83865000D03*
%TO.P,U2,D33*%
%TO.N,Net-(U2-PadD33)*%
X209800000Y-83865000D03*
%TO.P,U2,D32*%
%TO.N,Net-(U2-PadD32)*%
X212340000Y-83865000D03*
%TO.P,U2,D35*%
%TO.N,Net-(U2-PadD35)*%
X214880000Y-83865000D03*
%TO.P,U2,D34*%
%TO.N,Net-(U2-PadD34)*%
X217420000Y-83865000D03*
%TO.P,U2,D39*%
%TO.N,Net-(U2-PadD39)*%
X219960000Y-83865000D03*
%TO.P,U2,D36*%
%TO.N,Net-(U2-PadD36)*%
X222500000Y-83865000D03*
%TO.P,U2,EN*%
%TO.N,Net-(U2-PadEN)*%
X225040000Y-83865000D03*
%TD*%
D27*
%TO.N,Net-(BZ1-Pad1)*%
X197000000Y-100000000D03*
%TO.N,GND*%
X228000000Y-110000000D03*
%TO.N,Net-(C3-Pad1)*%
X249987347Y-111012653D03*
X243424989Y-94300021D03*
%TO.N,Net-(C4-Pad1)*%
X190000000Y-112000000D03*
X191000000Y-91000000D03*
X193000000Y-91000000D03*
X215000000Y-93000000D03*
X248000000Y-95000000D03*
%TO.N,Net-(D2-Pad2)*%
X248000000Y-101000000D03*
%TO.N,VCC*%
X193000000Y-88000000D03*
%TO.N,Net-(Q1-Pad1)*%
X216000000Y-99000000D03*
X232000000Y-104000000D03*
%TO.N,Net-(Q2-Pad2)*%
X222000000Y-96000000D03*
%TO.N,Net-(Q2-Pad3)*%
X211000000Y-104000000D03*
X219000000Y-106000000D03*
X223000000Y-106000000D03*
X229987347Y-106987347D03*
%TD*%
D28*
%TO.N,Net-(BZ1-Pad1)*%
X197000000Y-109170000D02*
X197100000Y-109270000D01*
X197000000Y-100000000D02*
X197000000Y-109170000D01*
%TO.N,Net-(BZ1-Pad2)*%
X246785002Y-88000000D02*
X242600000Y-88000000D01*
X248425001Y-89639999D02*
X246785002Y-88000000D01*
X248425001Y-92360001D02*
X248425001Y-89639999D01*
X245759981Y-95025021D02*
X248425001Y-92360001D01*
X208515199Y-107979799D02*
X221469977Y-95025021D01*
X200930201Y-107979799D02*
X208515199Y-107979799D01*
X221469977Y-95025021D02*
X245759981Y-95025021D01*
X199640000Y-109270000D02*
X200930201Y-107979799D01*
%TO.N,GND*%
X192020000Y-83865000D02*
X192020000Y-109270000D01*
X193310201Y-110560201D02*
X198100201Y-110560201D01*
X198100201Y-110560201D02*
X202540000Y-115000000D01*
X192020000Y-109270000D02*
X193310201Y-110560201D01*
X226330201Y-107490201D02*
X222000000Y-103160000D01*
X226330201Y-109889297D02*
X226330201Y-107490201D01*
X222444499Y-113774999D02*
X226330201Y-109889297D01*
X203765001Y-113774999D02*
X222444499Y-113774999D01*
X202540000Y-115000000D02*
X203765001Y-113774999D01*
X226440904Y-110000000D02*
X226330201Y-109889297D01*
X228000000Y-110000000D02*
X226440904Y-110000000D01*
X270499999Y-106000001D02*
X271000000Y-105500000D01*
X265999999Y-106000001D02*
X270499999Y-106000001D01*
X265000000Y-107000000D02*
X265999999Y-106000001D01*
X271540001Y-106874999D02*
X265125001Y-106874999D01*
X272125001Y-107459999D02*
X271540001Y-106874999D01*
X272125001Y-109289212D02*
X272125001Y-107459999D01*
X266414213Y-115000000D02*
X272125001Y-109289212D01*
X265125001Y-106874999D02*
X265000000Y-107000000D01*
X265000000Y-115000000D02*
X266414213Y-115000000D01*
%TO.N,Net-(C2-Pad2)*%
X250926998Y-91000000D02*
X257160000Y-91000000D01*
X247274999Y-94651999D02*
X250926998Y-91000000D01*
X247274999Y-95348001D02*
X247274999Y-94651999D01*
X249000000Y-97073002D02*
X247274999Y-95348001D01*
X249000000Y-115000000D02*
X249000000Y-97073002D01*
X250160000Y-84000000D02*
X257160000Y-91000000D01*
X247000000Y-84000000D02*
X250160000Y-84000000D01*
%TO.N,Net-(C3-Pad1)*%
X243424989Y-94575011D02*
X247000000Y-91000000D01*
X202575011Y-94575011D02*
X243424989Y-94575011D01*
X201000000Y-93000000D02*
X202575011Y-94575011D01*
X250987347Y-111012653D02*
X249987347Y-111012653D01*
X255000000Y-107000000D02*
X250987347Y-111012653D01*
%TO.N,Net-(C4-Pad1)*%
X188189799Y-93810201D02*
X191000000Y-91000000D01*
X188189799Y-110189799D02*
X188189799Y-93810201D01*
X190000000Y-112000000D02*
X188189799Y-110189799D01*
X213874999Y-94125001D02*
X215000000Y-93000000D01*
X207459999Y-94125001D02*
X213874999Y-94125001D01*
X204334998Y-91000000D02*
X207459999Y-94125001D01*
X193000000Y-91000000D02*
X204334998Y-91000000D01*
X270200001Y-108799999D02*
X271000000Y-108000000D01*
X261799999Y-108799999D02*
X270200001Y-108799999D01*
X248000000Y-95000000D02*
X261799999Y-108799999D01*
%TO.N,Net-(D2-Pad2)*%
X239310010Y-101149990D02*
X247149990Y-101149990D01*
X237000000Y-103460000D02*
X239310010Y-101149990D01*
X247299980Y-101000000D02*
X248000000Y-101000000D01*
X247149990Y-101149990D02*
X247299980Y-101000000D01*
X262760000Y-98000000D02*
X263000000Y-98240000D01*
X257160000Y-98000000D02*
X262760000Y-98000000D01*
%TO.N,VCC*%
X203000000Y-88000000D02*
X208000000Y-93000000D01*
X193000000Y-88000000D02*
X203000000Y-88000000D01*
%TO.N,Net-(Q1-Pad1)*%
X215824989Y-98824989D02*
X216000000Y-99000000D01*
X196465599Y-98824989D02*
X215824989Y-98824989D01*
X194000000Y-101290588D02*
X196465599Y-98824989D01*
X194000000Y-103160000D02*
X194000000Y-101290588D01*
X234000000Y-106000000D02*
X237000000Y-106000000D01*
X232000000Y-104000000D02*
X234000000Y-106000000D01*
%TO.N,Net-(Q2-Pad2)*%
X222000000Y-96160000D02*
X222000000Y-96000000D01*
X215000000Y-103160000D02*
X222000000Y-96160000D01*
%TO.N,Net-(Q2-Pad3)*%
X206874999Y-104285001D02*
X208000000Y-103160000D01*
X200459999Y-104285001D02*
X206874999Y-104285001D01*
X197348001Y-99274999D02*
X199874999Y-101801997D01*
X199874999Y-103700001D02*
X200459999Y-104285001D01*
X199874999Y-101801997D02*
X199874999Y-103700001D01*
X196651999Y-99274999D02*
X197348001Y-99274999D01*
X196274999Y-99651999D02*
X196651999Y-99274999D01*
X196274999Y-107555001D02*
X196274999Y-99651999D01*
X194560000Y-109270000D02*
X196274999Y-107555001D01*
X210160000Y-103160000D02*
X211000000Y-104000000D01*
X208000000Y-103160000D02*
X210160000Y-103160000D01*
X219000000Y-106000000D02*
X223000000Y-106000000D01*
X244000000Y-102000000D02*
X245000000Y-102000000D01*
X238612654Y-107387346D02*
X244000000Y-102000000D01*
X230387346Y-107387346D02*
X238612654Y-107387346D01*
X229987347Y-106987347D02*
X230387346Y-107387346D01*
%TO.N,Net-(U1-Pad3)*%
X218904097Y-102034999D02*
X222540001Y-102034999D01*
X212959297Y-107979799D02*
X218904097Y-102034999D01*
X211090201Y-107979799D02*
X212959297Y-107979799D01*
X222540001Y-102034999D02*
X231000000Y-110494998D01*
X209800000Y-109270000D02*
X211090201Y-107979799D01*
X231270000Y-115073202D02*
X231270000Y-116000000D01*
X231000000Y-114803202D02*
X231270000Y-115073202D01*
X231000000Y-110494998D02*
X231000000Y-114803202D01*
%TD*%
D29*
%TO.N,GND*%
X280873000Y-135873000D02*
X179127000Y-135873000D01*
X179127000Y-129210000D01*
X272215000Y-129210000D01*
X272215000Y-133030000D01*
X277785000Y-133030000D01*
X277785000Y-129210000D01*
X272215000Y-129210000D01*
X179127000Y-129210000D01*
X179127000Y-123415000D01*
X254695953Y-123415000D01*
X254695953Y-129035000D01*
X279304048Y-129035000D01*
X279304048Y-123415000D01*
X254695953Y-123415000D01*
X179127000Y-123415000D01*
X179127000Y-115779872D01*
X180765000Y-115779872D01*
X180765000Y-116220128D01*
X180850890Y-116651925D01*
X181019369Y-117058669D01*
X181263962Y-117424729D01*
X181575271Y-117736038D01*
X181941331Y-117980631D01*
X182348075Y-118149110D01*
X182779872Y-118235000D01*
X183220128Y-118235000D01*
X183651925Y-118149110D01*
X184058669Y-117980631D01*
X184424729Y-117736038D01*
X184736038Y-117424729D01*
X184980631Y-117058669D01*
X185149110Y-116651925D01*
X185235000Y-116220128D01*
X185235000Y-115779872D01*
X185149110Y-115348075D01*
X184980631Y-114941331D01*
X184736038Y-114575271D01*
X184424729Y-114263962D01*
X184403834Y-114250000D01*
X189511928Y-114250000D01*
X189511928Y-115750000D01*
X189528992Y-115923254D01*
X189579528Y-116089850D01*
X189661595Y-116243386D01*
X189772038Y-116377962D01*
X189906614Y-116488405D01*
X190060150Y-116570472D01*
X190226746Y-116621008D01*
X190400000Y-116638072D01*
X191600000Y-116638072D01*
X191773254Y-116621008D01*
X191939850Y-116570472D01*
X192093386Y-116488405D01*
X192227962Y-116377962D01*
X192338405Y-116243386D01*
X192392777Y-116141663D01*
X192444866Y-116205134D01*
X192670987Y-116390706D01*
X192928967Y-116528599D01*
X193208890Y-116613513D01*
X193500000Y-116642185D01*
X193791111Y-116613513D01*
X194071034Y-116528599D01*
X194329014Y-116390706D01*
X194555134Y-116205134D01*
X194740706Y-115979014D01*
X194878599Y-115721033D01*
X194963513Y-115441110D01*
X194985000Y-115222949D01*
X194985000Y-114777050D01*
X194963513Y-114558889D01*
X194878599Y-114278966D01*
X194782940Y-114100000D01*
X198461928Y-114100000D01*
X198461928Y-115900000D01*
X198474188Y-116024482D01*
X198510498Y-116144180D01*
X198569463Y-116254494D01*
X198648815Y-116351185D01*
X198745506Y-116430537D01*
X198855820Y-116489502D01*
X198975518Y-116525812D01*
X199100000Y-116538072D01*
X200900000Y-116538072D01*
X201024482Y-116525812D01*
X201144180Y-116489502D01*
X201254494Y-116430537D01*
X201351185Y-116351185D01*
X201430537Y-116254494D01*
X201489502Y-116144180D01*
X201492813Y-116133265D01*
X201539578Y-116180030D01*
X201655526Y-116064082D01*
X201739208Y-116318261D01*
X202011775Y-116449158D01*
X202304642Y-116524365D01*
X202606553Y-116540991D01*
X202905907Y-116498397D01*
X203191199Y-116398222D01*
X203340792Y-116318261D01*
X203424475Y-116064080D01*
X202540000Y-115179605D01*
X202525858Y-115193748D01*
X202346253Y-115014143D01*
X202360395Y-115000000D01*
X202719605Y-115000000D01*
X203604080Y-115884475D01*
X203785049Y-115824895D01*
X203887688Y-115978505D01*
X204101495Y-116192312D01*
X204352905Y-116360299D01*
X204632257Y-116476011D01*
X204928816Y-116535000D01*
X205231184Y-116535000D01*
X205527743Y-116476011D01*
X205807095Y-116360299D01*
X206058505Y-116192312D01*
X206272312Y-115978505D01*
X206440299Y-115727095D01*
X206556011Y-115447743D01*
X206615000Y-115151184D01*
X206615000Y-114848816D01*
X206556011Y-114552257D01*
X206440299Y-114272905D01*
X206272312Y-114021495D01*
X206058505Y-113807688D01*
X205807095Y-113639701D01*
X205527743Y-113523989D01*
X205231184Y-113465000D01*
X204928816Y-113465000D01*
X204632257Y-113523989D01*
X204352905Y-113639701D01*
X204101495Y-113807688D01*
X203887688Y-114021495D01*
X203785049Y-114175105D01*
X203604080Y-114115525D01*
X202719605Y-115000000D01*
X202360395Y-115000000D01*
X202346253Y-114985858D01*
X202525858Y-114806253D01*
X202540000Y-114820395D01*
X203424475Y-113935920D01*
X203340792Y-113681739D01*
X203068225Y-113550842D01*
X202775358Y-113475635D01*
X202473447Y-113459009D01*
X202174093Y-113501603D01*
X201888801Y-113601778D01*
X201739208Y-113681739D01*
X201655526Y-113935918D01*
X201539578Y-113819970D01*
X201492813Y-113866735D01*
X201489502Y-113855820D01*
X201430537Y-113745506D01*
X201351185Y-113648815D01*
X201254494Y-113569463D01*
X201144180Y-113510498D01*
X201024482Y-113474188D01*
X200900000Y-113461928D01*
X199100000Y-113461928D01*
X198975518Y-113474188D01*
X198855820Y-113510498D01*
X198745506Y-113569463D01*
X198648815Y-113648815D01*
X198569463Y-113745506D01*
X198510498Y-113855820D01*
X198474188Y-113975518D01*
X198461928Y-114100000D01*
X194782940Y-114100000D01*
X194740706Y-114020986D01*
X194555134Y-113794866D01*
X194329013Y-113609294D01*
X194071033Y-113471401D01*
X193791110Y-113386487D01*
X193500000Y-113357815D01*
X193208889Y-113386487D01*
X192928966Y-113471401D01*
X192670986Y-113609294D01*
X192444866Y-113794866D01*
X192392777Y-113858337D01*
X192338405Y-113756614D01*
X192227962Y-113622038D01*
X192093386Y-113511595D01*
X191939850Y-113429528D01*
X191773254Y-113378992D01*
X191600000Y-113361928D01*
X190400000Y-113361928D01*
X190226746Y-113378992D01*
X190060150Y-113429528D01*
X189906614Y-113511595D01*
X189772038Y-113622038D01*
X189661595Y-113756614D01*
X189579528Y-113910150D01*
X189528992Y-114076746D01*
X189511928Y-114250000D01*
X184403834Y-114250000D01*
X184058669Y-114019369D01*
X183651925Y-113850890D01*
X183220128Y-113765000D01*
X182779872Y-113765000D01*
X182348075Y-113850890D01*
X181941331Y-114019369D01*
X181575271Y-114263962D01*
X181263962Y-114575271D01*
X181019369Y-114941331D01*
X180850890Y-115348075D01*
X180765000Y-115779872D01*
X179127000Y-115779872D01*
X179127000Y-93810201D01*
X187426123Y-93810201D01*
X187429800Y-93847534D01*
X187429799Y-110152477D01*
X187426123Y-110189799D01*
X187429799Y-110227121D01*
X187429799Y-110227131D01*
X187440796Y-110338784D01*
X187453479Y-110380594D01*
X187484253Y-110482045D01*
X187554825Y-110614075D01*
X187579370Y-110643983D01*
X187649798Y-110729800D01*
X187678802Y-110753603D01*
X188965000Y-112039802D01*
X188965000Y-112101939D01*
X189004774Y-112301898D01*
X189082795Y-112490256D01*
X189196063Y-112659774D01*
X189340226Y-112803937D01*
X189509744Y-112917205D01*
X189698102Y-112995226D01*
X189898061Y-113035000D01*
X190101939Y-113035000D01*
X190301898Y-112995226D01*
X190490256Y-112917205D01*
X190659774Y-112803937D01*
X190803937Y-112659774D01*
X190917205Y-112490256D01*
X190995226Y-112301898D01*
X191035000Y-112101939D01*
X191035000Y-111898061D01*
X190995226Y-111698102D01*
X190917205Y-111509744D01*
X190803937Y-111340226D01*
X190659774Y-111196063D01*
X190490256Y-111082795D01*
X190301898Y-111004774D01*
X190101939Y-110965000D01*
X190039802Y-110965000D01*
X189894002Y-110819200D01*
X189946761Y-110808706D01*
X190237979Y-110688079D01*
X190500068Y-110512957D01*
X190632431Y-110380594D01*
X191089011Y-110380594D01*
X191180572Y-110641438D01*
X191464256Y-110778851D01*
X191769296Y-110858279D01*
X192083971Y-110876670D01*
X192396188Y-110833318D01*
X192693948Y-110729888D01*
X192859428Y-110641438D01*
X192950989Y-110380594D01*
X192020000Y-109449605D01*
X191089011Y-110380594D01*
X190632431Y-110380594D01*
X190722957Y-110290068D01*
X190806592Y-110164899D01*
X190909406Y-110200989D01*
X191840395Y-109270000D01*
X190909406Y-108339011D01*
X190806592Y-108375101D01*
X190722957Y-108249932D01*
X190632431Y-108159406D01*
X191089011Y-108159406D01*
X192020000Y-109090395D01*
X192950989Y-108159406D01*
X192859428Y-107898562D01*
X192575744Y-107761149D01*
X192270704Y-107681721D01*
X191956029Y-107663330D01*
X191643812Y-107706682D01*
X191346052Y-107810112D01*
X191180572Y-107898562D01*
X191089011Y-108159406D01*
X190632431Y-108159406D01*
X190500068Y-108027043D01*
X190237979Y-107851921D01*
X189946761Y-107731294D01*
X189637606Y-107669800D01*
X189322394Y-107669800D01*
X189013239Y-107731294D01*
X188949799Y-107757572D01*
X188949799Y-94125002D01*
X191039802Y-92035000D01*
X191101939Y-92035000D01*
X191301898Y-91995226D01*
X191490256Y-91917205D01*
X191659774Y-91803937D01*
X191803937Y-91659774D01*
X191917205Y-91490256D01*
X191995226Y-91301898D01*
X192000000Y-91277897D01*
X192004774Y-91301898D01*
X192082795Y-91490256D01*
X192196063Y-91659774D01*
X192340226Y-91803937D01*
X192509744Y-91917205D01*
X192698102Y-91995226D01*
X192898061Y-92035000D01*
X192935604Y-92035000D01*
X192885363Y-92085241D01*
X192728320Y-92320273D01*
X192620147Y-92581426D01*
X192565000Y-92858665D01*
X192565000Y-93141335D01*
X192620147Y-93418574D01*
X192728320Y-93679727D01*
X192885363Y-93914759D01*
X193085241Y-94114637D01*
X193320273Y-94271680D01*
X193581426Y-94379853D01*
X193858665Y-94435000D01*
X194141335Y-94435000D01*
X194418574Y-94379853D01*
X194679727Y-94271680D01*
X194914759Y-94114637D01*
X195114637Y-93914759D01*
X195271680Y-93679727D01*
X195379853Y-93418574D01*
X195435000Y-93141335D01*
X195435000Y-92858665D01*
X195379853Y-92581426D01*
X195271680Y-92320273D01*
X195114637Y-92085241D01*
X194914759Y-91885363D01*
X194727140Y-91760000D01*
X200272860Y-91760000D01*
X200085241Y-91885363D01*
X199885363Y-92085241D01*
X199728320Y-92320273D01*
X199620147Y-92581426D01*
X199565000Y-92858665D01*
X199565000Y-93141335D01*
X199620147Y-93418574D01*
X199728320Y-93679727D01*
X199885363Y-93914759D01*
X200085241Y-94114637D01*
X200320273Y-94271680D01*
X200581426Y-94379853D01*
X200858665Y-94435000D01*
X201141335Y-94435000D01*
X201323886Y-94398688D01*
X202011212Y-95086014D01*
X202035010Y-95115012D01*
X202064008Y-95138810D01*
X202150734Y-95209985D01*
X202200009Y-95236323D01*
X202282764Y-95280557D01*
X202426025Y-95324014D01*
X202537678Y-95335011D01*
X202537688Y-95335011D01*
X202575011Y-95338687D01*
X202612334Y-95335011D01*
X220085185Y-95335011D01*
X216914500Y-98505696D01*
X216803937Y-98340226D01*
X216659774Y-98196063D01*
X216490256Y-98082795D01*
X216301898Y-98004774D01*
X216101939Y-97965000D01*
X215898061Y-97965000D01*
X215698102Y-98004774D01*
X215552731Y-98064989D01*
X196502932Y-98064989D01*
X196465599Y-98061312D01*
X196428266Y-98064989D01*
X196316613Y-98075986D01*
X196173352Y-98119443D01*
X196041323Y-98190015D01*
X195925598Y-98284988D01*
X195901800Y-98313986D01*
X193488998Y-100726789D01*
X193460000Y-100750587D01*
X193436202Y-100779585D01*
X193436201Y-100779586D01*
X193365026Y-100866312D01*
X193294454Y-100998342D01*
X193250998Y-101141603D01*
X193236324Y-101290588D01*
X193240001Y-101327920D01*
X193240001Y-101941956D01*
X193085241Y-102045363D01*
X192885363Y-102245241D01*
X192728320Y-102480273D01*
X192620147Y-102741426D01*
X192565000Y-103018665D01*
X192565000Y-103301335D01*
X192620147Y-103578574D01*
X192728320Y-103839727D01*
X192885363Y-104074759D01*
X193085241Y-104274637D01*
X193320273Y-104431680D01*
X193581426Y-104539853D01*
X193858665Y-104595000D01*
X194141335Y-104595000D01*
X194418574Y-104539853D01*
X194679727Y-104431680D01*
X194914759Y-104274637D01*
X195114637Y-104074759D01*
X195271680Y-103839727D01*
X195379853Y-103578574D01*
X195435000Y-103301335D01*
X195435000Y-103018665D01*
X195379853Y-102741426D01*
X195271680Y-102480273D01*
X195114637Y-102245241D01*
X194914759Y-102045363D01*
X194760000Y-101941957D01*
X194760000Y-101605389D01*
X195515000Y-100850390D01*
X195514999Y-107240199D01*
X195024378Y-107730820D01*
X194717606Y-107669800D01*
X194402394Y-107669800D01*
X194093239Y-107731294D01*
X193802021Y-107851921D01*
X193539932Y-108027043D01*
X193317043Y-108249932D01*
X193233408Y-108375101D01*
X193130594Y-108339011D01*
X192199605Y-109270000D01*
X193130594Y-110200989D01*
X193233408Y-110164899D01*
X193317043Y-110290068D01*
X193539932Y-110512957D01*
X193802021Y-110688079D01*
X194093239Y-110808706D01*
X194402394Y-110870200D01*
X194717606Y-110870200D01*
X195026761Y-110808706D01*
X195317979Y-110688079D01*
X195580068Y-110512957D01*
X195802957Y-110290068D01*
X195830000Y-110249595D01*
X195857043Y-110290068D01*
X196079932Y-110512957D01*
X196342021Y-110688079D01*
X196633239Y-110808706D01*
X196942394Y-110870200D01*
X197257606Y-110870200D01*
X197566761Y-110808706D01*
X197857979Y-110688079D01*
X198120068Y-110512957D01*
X198342957Y-110290068D01*
X198370000Y-110249595D01*
X198397043Y-110290068D01*
X198619932Y-110512957D01*
X198882021Y-110688079D01*
X199173239Y-110808706D01*
X199482394Y-110870200D01*
X199797606Y-110870200D01*
X200106761Y-110808706D01*
X200397979Y-110688079D01*
X200660068Y-110512957D01*
X200882957Y-110290068D01*
X200910000Y-110249595D01*
X200937043Y-110290068D01*
X201159932Y-110512957D01*
X201422021Y-110688079D01*
X201713239Y-110808706D01*
X202022394Y-110870200D01*
X202337606Y-110870200D01*
X202646761Y-110808706D01*
X202937979Y-110688079D01*
X203200068Y-110512957D01*
X203422957Y-110290068D01*
X203450000Y-110249595D01*
X203477043Y-110290068D01*
X203699932Y-110512957D01*
X203962021Y-110688079D01*
X204253239Y-110808706D01*
X204562394Y-110870200D01*
X204877606Y-110870200D01*
X205186761Y-110808706D01*
X205477979Y-110688079D01*
X205740068Y-110512957D01*
X205962957Y-110290068D01*
X205990000Y-110249595D01*
X206017043Y-110290068D01*
X206239932Y-110512957D01*
X206502021Y-110688079D01*
X206793239Y-110808706D01*
X207102394Y-110870200D01*
X207417606Y-110870200D01*
X207726761Y-110808706D01*
X208017979Y-110688079D01*
X208280068Y-110512957D01*
X208502957Y-110290068D01*
X208530000Y-110249595D01*
X208557043Y-110290068D01*
X208779932Y-110512957D01*
X209042021Y-110688079D01*
X209333239Y-110808706D01*
X209642394Y-110870200D01*
X209957606Y-110870200D01*
X210266761Y-110808706D01*
X210557979Y-110688079D01*
X210820068Y-110512957D01*
X211042957Y-110290068D01*
X211070000Y-110249595D01*
X211097043Y-110290068D01*
X211319932Y-110512957D01*
X211582021Y-110688079D01*
X211873239Y-110808706D01*
X212182394Y-110870200D01*
X212497606Y-110870200D01*
X212806761Y-110808706D01*
X213097979Y-110688079D01*
X213360068Y-110512957D01*
X213582957Y-110290068D01*
X213610000Y-110249595D01*
X213637043Y-110290068D01*
X213859932Y-110512957D01*
X214122021Y-110688079D01*
X214413239Y-110808706D01*
X214722394Y-110870200D01*
X215037606Y-110870200D01*
X215346761Y-110808706D01*
X215637979Y-110688079D01*
X215900068Y-110512957D01*
X216122957Y-110290068D01*
X216150000Y-110249595D01*
X216177043Y-110290068D01*
X216399932Y-110512957D01*
X216662021Y-110688079D01*
X216953239Y-110808706D01*
X217262394Y-110870200D01*
X217577606Y-110870200D01*
X217886761Y-110808706D01*
X218177979Y-110688079D01*
X218440068Y-110512957D01*
X218662957Y-110290068D01*
X218690000Y-110249595D01*
X218717043Y-110290068D01*
X218939932Y-110512957D01*
X219202021Y-110688079D01*
X219493239Y-110808706D01*
X219802394Y-110870200D01*
X220117606Y-110870200D01*
X220426761Y-110808706D01*
X220717979Y-110688079D01*
X220980068Y-110512957D01*
X221202957Y-110290068D01*
X221230000Y-110249595D01*
X221257043Y-110290068D01*
X221479932Y-110512957D01*
X221742021Y-110688079D01*
X222033239Y-110808706D01*
X222342394Y-110870200D01*
X222657606Y-110870200D01*
X222966761Y-110808706D01*
X223257979Y-110688079D01*
X223520068Y-110512957D01*
X223742957Y-110290068D01*
X223770000Y-110249595D01*
X223797043Y-110290068D01*
X224019932Y-110512957D01*
X224282021Y-110688079D01*
X224573239Y-110808706D01*
X224882394Y-110870200D01*
X225197606Y-110870200D01*
X225506761Y-110808706D01*
X225797979Y-110688079D01*
X226060068Y-110512957D01*
X226282957Y-110290068D01*
X226458079Y-110027979D01*
X226578706Y-109736761D01*
X226640200Y-109427606D01*
X226640200Y-109112394D01*
X226578706Y-108803239D01*
X226458079Y-108512021D01*
X226282957Y-108249932D01*
X226060068Y-108027043D01*
X225797979Y-107851921D01*
X225506761Y-107731294D01*
X225197606Y-107669800D01*
X224882394Y-107669800D01*
X224573239Y-107731294D01*
X224282021Y-107851921D01*
X224019932Y-108027043D01*
X223797043Y-108249932D01*
X223770000Y-108290405D01*
X223742957Y-108249932D01*
X223520068Y-108027043D01*
X223257979Y-107851921D01*
X222966761Y-107731294D01*
X222657606Y-107669800D01*
X222342394Y-107669800D01*
X222033239Y-107731294D01*
X221742021Y-107851921D01*
X221479932Y-108027043D01*
X221257043Y-108249932D01*
X221230000Y-108290405D01*
X221202957Y-108249932D01*
X220980068Y-108027043D01*
X220717979Y-107851921D01*
X220426761Y-107731294D01*
X220117606Y-107669800D01*
X219802394Y-107669800D01*
X219493239Y-107731294D01*
X219202021Y-107851921D01*
X218939932Y-108027043D01*
X218717043Y-108249932D01*
X218690000Y-108290405D01*
X218662957Y-108249932D01*
X218440068Y-108027043D01*
X218177979Y-107851921D01*
X217886761Y-107731294D01*
X217577606Y-107669800D01*
X217262394Y-107669800D01*
X216953239Y-107731294D01*
X216662021Y-107851921D01*
X216399932Y-108027043D01*
X216177043Y-108249932D01*
X216150000Y-108290405D01*
X216122957Y-108249932D01*
X215900068Y-108027043D01*
X215637979Y-107851921D01*
X215346761Y-107731294D01*
X215037606Y-107669800D01*
X214722394Y-107669800D01*
X214413239Y-107731294D01*
X214190229Y-107823668D01*
X216115836Y-105898061D01*
X217965000Y-105898061D01*
X217965000Y-106101939D01*
X218004774Y-106301898D01*
X218082795Y-106490256D01*
X218196063Y-106659774D01*
X218340226Y-106803937D01*
X218509744Y-106917205D01*
X218698102Y-106995226D01*
X218898061Y-107035000D01*
X219101939Y-107035000D01*
X219301898Y-106995226D01*
X219490256Y-106917205D01*
X219659774Y-106803937D01*
X219703711Y-106760000D01*
X222296289Y-106760000D01*
X222340226Y-106803937D01*
X222509744Y-106917205D01*
X222698102Y-106995226D01*
X222898061Y-107035000D01*
X223101939Y-107035000D01*
X223301898Y-106995226D01*
X223490256Y-106917205D01*
X223659774Y-106803937D01*
X223803937Y-106659774D01*
X223917205Y-106490256D01*
X223995226Y-106301898D01*
X224035000Y-106101939D01*
X224035000Y-105898061D01*
X223995226Y-105698102D01*
X223917205Y-105509744D01*
X223803937Y-105340226D01*
X223659774Y-105196063D01*
X223490256Y-105082795D01*
X223301898Y-105004774D01*
X223101939Y-104965000D01*
X222898061Y-104965000D01*
X222698102Y-105004774D01*
X222509744Y-105082795D01*
X222340226Y-105196063D01*
X222296289Y-105240000D01*
X219703711Y-105240000D01*
X219659774Y-105196063D01*
X219490256Y-105082795D01*
X219301898Y-105004774D01*
X219101939Y-104965000D01*
X218898061Y-104965000D01*
X218698102Y-105004774D01*
X218509744Y-105082795D01*
X218340226Y-105196063D01*
X218196063Y-105340226D01*
X218082795Y-105509744D01*
X218004774Y-105698102D01*
X217965000Y-105898061D01*
X216115836Y-105898061D01*
X218504857Y-103509040D01*
X220608091Y-103509040D01*
X220702930Y-103773881D01*
X220847615Y-104015131D01*
X221036586Y-104223519D01*
X221262580Y-104391037D01*
X221516913Y-104511246D01*
X221650961Y-104551904D01*
X221873000Y-104429915D01*
X221873000Y-103287000D01*
X220729376Y-103287000D01*
X220608091Y-103509040D01*
X218504857Y-103509040D01*
X219218899Y-102794999D01*
X220613807Y-102794999D01*
X220608091Y-102810960D01*
X220729376Y-103033000D01*
X221873000Y-103033000D01*
X221873000Y-103013000D01*
X222127000Y-103013000D01*
X222127000Y-103033000D01*
X222147000Y-103033000D01*
X222147000Y-103287000D01*
X222127000Y-103287000D01*
X222127000Y-104429915D01*
X222349039Y-104551904D01*
X222483087Y-104511246D01*
X222737420Y-104391037D01*
X222963414Y-104223519D01*
X223152385Y-104015131D01*
X223262209Y-103832008D01*
X230240000Y-110809800D01*
X230240001Y-114765870D01*
X230236324Y-114803202D01*
X230250998Y-114952187D01*
X230271227Y-115018874D01*
X230182549Y-115107552D01*
X230029336Y-115336851D01*
X230000000Y-115407674D01*
X229970664Y-115336851D01*
X229817451Y-115107552D01*
X229622448Y-114912549D01*
X229393149Y-114759336D01*
X229138365Y-114653801D01*
X228867888Y-114600000D01*
X228592112Y-114600000D01*
X228321635Y-114653801D01*
X228066851Y-114759336D01*
X227837552Y-114912549D01*
X227642549Y-115107552D01*
X227489336Y-115336851D01*
X227460000Y-115407674D01*
X227430664Y-115336851D01*
X227277451Y-115107552D01*
X227082448Y-114912549D01*
X226853149Y-114759336D01*
X226598365Y-114653801D01*
X226327888Y-114600000D01*
X226052112Y-114600000D01*
X225781635Y-114653801D01*
X225526851Y-114759336D01*
X225297552Y-114912549D01*
X225102549Y-115107552D01*
X224949336Y-115336851D01*
X224843801Y-115591635D01*
X224790000Y-115862112D01*
X224790000Y-116137888D01*
X224843801Y-116408365D01*
X224949336Y-116663149D01*
X225102549Y-116892448D01*
X225297552Y-117087451D01*
X225526851Y-117240664D01*
X225781635Y-117346199D01*
X226052112Y-117400000D01*
X226327888Y-117400000D01*
X226598365Y-117346199D01*
X226853149Y-117240664D01*
X227082448Y-117087451D01*
X227277451Y-116892448D01*
X227430664Y-116663149D01*
X227460000Y-116592326D01*
X227489336Y-116663149D01*
X227642549Y-116892448D01*
X227837552Y-117087451D01*
X228066851Y-117240664D01*
X228321635Y-117346199D01*
X228592112Y-117400000D01*
X228867888Y-117400000D01*
X229138365Y-117346199D01*
X229393149Y-117240664D01*
X229622448Y-117087451D01*
X229817451Y-116892448D01*
X229970664Y-116663149D01*
X230000000Y-116592326D01*
X230029336Y-116663149D01*
X230182549Y-116892448D01*
X230377552Y-117087451D01*
X230606851Y-117240664D01*
X230861635Y-117346199D01*
X231132112Y-117400000D01*
X231407888Y-117400000D01*
X231678365Y-117346199D01*
X231933149Y-117240664D01*
X232162448Y-117087451D01*
X232282192Y-116967707D01*
X233021898Y-116967707D01*
X233089240Y-117208106D01*
X233338780Y-117325506D01*
X233606427Y-117391967D01*
X233881899Y-117404936D01*
X234154607Y-117363914D01*
X234414072Y-117270478D01*
X234530760Y-117208106D01*
X234598102Y-116967707D01*
X233810000Y-116179605D01*
X233021898Y-116967707D01*
X232282192Y-116967707D01*
X232357451Y-116892448D01*
X232510664Y-116663149D01*
X232537482Y-116598406D01*
X232539522Y-116604072D01*
X232601894Y-116720760D01*
X232842293Y-116788102D01*
X233630395Y-116000000D01*
X233989605Y-116000000D01*
X234777707Y-116788102D01*
X235018106Y-116720760D01*
X235135506Y-116471220D01*
X235201967Y-116203573D01*
X235214936Y-115928101D01*
X235173914Y-115655393D01*
X235080478Y-115395928D01*
X235018106Y-115279240D01*
X234777707Y-115211898D01*
X233989605Y-116000000D01*
X233630395Y-116000000D01*
X232842293Y-115211898D01*
X232601894Y-115279240D01*
X232540688Y-115409336D01*
X232510664Y-115336851D01*
X232357451Y-115107552D01*
X232282192Y-115032293D01*
X233021898Y-115032293D01*
X233810000Y-115820395D01*
X234598102Y-115032293D01*
X234543947Y-114838967D01*
X237365000Y-114838967D01*
X237365000Y-115161033D01*
X237427832Y-115476912D01*
X237551082Y-115774463D01*
X237730013Y-116042252D01*
X237957748Y-116269987D01*
X238225537Y-116448918D01*
X238523088Y-116572168D01*
X238838967Y-116635000D01*
X239161033Y-116635000D01*
X239476912Y-116572168D01*
X239774463Y-116448918D01*
X240042252Y-116269987D01*
X240269987Y-116042252D01*
X240448918Y-115774463D01*
X240572168Y-115476912D01*
X240635000Y-115161033D01*
X240635000Y-114838967D01*
X240572168Y-114523088D01*
X240448918Y-114225537D01*
X240269987Y-113957748D01*
X240042252Y-113730013D01*
X239774463Y-113551082D01*
X239476912Y-113427832D01*
X239161033Y-113365000D01*
X238838967Y-113365000D01*
X238523088Y-113427832D01*
X238225537Y-113551082D01*
X237957748Y-113730013D01*
X237730013Y-113957748D01*
X237551082Y-114225537D01*
X237427832Y-114523088D01*
X237365000Y-114838967D01*
X234543947Y-114838967D01*
X234530760Y-114791894D01*
X234281220Y-114674494D01*
X234013573Y-114608033D01*
X233738101Y-114595064D01*
X233465393Y-114636086D01*
X233205928Y-114729522D01*
X233089240Y-114791894D01*
X233021898Y-115032293D01*
X232282192Y-115032293D01*
X232162448Y-114912549D01*
X231978099Y-114789371D01*
X231975546Y-114780955D01*
X231904974Y-114648926D01*
X231810001Y-114533201D01*
X231780998Y-114509399D01*
X231760000Y-114488401D01*
X231760000Y-110532320D01*
X231763676Y-110494997D01*
X231760000Y-110457674D01*
X231760000Y-110457665D01*
X231749003Y-110346012D01*
X231705546Y-110202751D01*
X231634974Y-110070722D01*
X231540001Y-109954997D01*
X231511004Y-109931200D01*
X229458711Y-107878908D01*
X229497091Y-107904552D01*
X229685449Y-107982573D01*
X229885408Y-108022347D01*
X229963121Y-108022347D01*
X230095099Y-108092892D01*
X230238360Y-108136349D01*
X230350013Y-108147346D01*
X230350023Y-108147346D01*
X230387345Y-108151022D01*
X230424668Y-108147346D01*
X238575332Y-108147346D01*
X238612654Y-108151022D01*
X238649976Y-108147346D01*
X238649987Y-108147346D01*
X238761640Y-108136349D01*
X238904901Y-108092892D01*
X239036930Y-108022320D01*
X239152655Y-107927347D01*
X239176458Y-107898343D01*
X242009801Y-105065000D01*
X243611928Y-105065000D01*
X243624188Y-105189482D01*
X243660498Y-105309180D01*
X243719463Y-105419494D01*
X243798815Y-105516185D01*
X243895506Y-105595537D01*
X244005820Y-105654502D01*
X244125518Y-105690812D01*
X244250000Y-105703072D01*
X244714250Y-105700000D01*
X244873000Y-105541250D01*
X244873000Y-104667000D01*
X245127000Y-104667000D01*
X245127000Y-105541250D01*
X245285750Y-105700000D01*
X245750000Y-105703072D01*
X245874482Y-105690812D01*
X245994180Y-105654502D01*
X246104494Y-105595537D01*
X246201185Y-105516185D01*
X246280537Y-105419494D01*
X246339502Y-105309180D01*
X246375812Y-105189482D01*
X246388072Y-105065000D01*
X246385000Y-104825750D01*
X246226250Y-104667000D01*
X245127000Y-104667000D01*
X244873000Y-104667000D01*
X243773750Y-104667000D01*
X243615000Y-104825750D01*
X243611928Y-105065000D01*
X242009801Y-105065000D01*
X243626909Y-103447893D01*
X243631785Y-103497400D01*
X243695093Y-103706098D01*
X243660498Y-103770820D01*
X243624188Y-103890518D01*
X243611928Y-104015000D01*
X243615000Y-104254250D01*
X243773750Y-104413000D01*
X244546891Y-104413000D01*
X244547600Y-104413215D01*
X244718021Y-104430000D01*
X245281979Y-104430000D01*
X245452400Y-104413215D01*
X245453109Y-104413000D01*
X246226250Y-104413000D01*
X246385000Y-104254250D01*
X246388072Y-104015000D01*
X246375812Y-103890518D01*
X246339502Y-103770820D01*
X246304907Y-103706098D01*
X246368215Y-103497400D01*
X246390612Y-103270000D01*
X246368215Y-103042600D01*
X246301885Y-102823940D01*
X246200895Y-102635000D01*
X246301885Y-102446060D01*
X246368215Y-102227400D01*
X246390612Y-102000000D01*
X246381747Y-101909990D01*
X247112668Y-101909990D01*
X247149990Y-101913666D01*
X247187312Y-101909990D01*
X247187323Y-101909990D01*
X247298976Y-101898993D01*
X247425189Y-101860707D01*
X247509744Y-101917205D01*
X247698102Y-101995226D01*
X247898061Y-102035000D01*
X248101939Y-102035000D01*
X248240001Y-102007538D01*
X248240000Y-113545091D01*
X248225537Y-113551082D01*
X247957748Y-113730013D01*
X247730013Y-113957748D01*
X247551082Y-114225537D01*
X247427832Y-114523088D01*
X247365000Y-114838967D01*
X247365000Y-115161033D01*
X247427832Y-115476912D01*
X247551082Y-115774463D01*
X247730013Y-116042252D01*
X247957748Y-116269987D01*
X248225537Y-116448918D01*
X248523088Y-116572168D01*
X248838967Y-116635000D01*
X249161033Y-116635000D01*
X249476912Y-116572168D01*
X249774463Y-116448918D01*
X250042252Y-116269987D01*
X250269987Y-116042252D01*
X250448918Y-115774463D01*
X250572168Y-115476912D01*
X250635000Y-115161033D01*
X250635000Y-114838967D01*
X253365000Y-114838967D01*
X253365000Y-115161033D01*
X253427832Y-115476912D01*
X253551082Y-115774463D01*
X253730013Y-116042252D01*
X253957748Y-116269987D01*
X254225537Y-116448918D01*
X254523088Y-116572168D01*
X254838967Y-116635000D01*
X255161033Y-116635000D01*
X255476912Y-116572168D01*
X255774463Y-116448918D01*
X256042252Y-116269987D01*
X256176826Y-116135413D01*
X264044192Y-116135413D01*
X264139956Y-116399814D01*
X264429571Y-116540704D01*
X264741108Y-116622384D01*
X265062595Y-116641718D01*
X265381675Y-116597961D01*
X265686088Y-116492795D01*
X265860044Y-116399814D01*
X265955808Y-116135413D01*
X265000000Y-115179605D01*
X264044192Y-116135413D01*
X256176826Y-116135413D01*
X256269987Y-116042252D01*
X256448918Y-115774463D01*
X256572168Y-115476912D01*
X256635000Y-115161033D01*
X256635000Y-115062595D01*
X263358282Y-115062595D01*
X263402039Y-115381675D01*
X263507205Y-115686088D01*
X263600186Y-115860044D01*
X263864587Y-115955808D01*
X264820395Y-115000000D01*
X265179605Y-115000000D01*
X266135413Y-115955808D01*
X266399814Y-115860044D01*
X266438815Y-115779872D01*
X274765000Y-115779872D01*
X274765000Y-116220128D01*
X274850890Y-116651925D01*
X275019369Y-117058669D01*
X275263962Y-117424729D01*
X275575271Y-117736038D01*
X275941331Y-117980631D01*
X276348075Y-118149110D01*
X276779872Y-118235000D01*
X277220128Y-118235000D01*
X277651925Y-118149110D01*
X278058669Y-117980631D01*
X278424729Y-117736038D01*
X278736038Y-117424729D01*
X278980631Y-117058669D01*
X279149110Y-116651925D01*
X279235000Y-116220128D01*
X279235000Y-115779872D01*
X279149110Y-115348075D01*
X278980631Y-114941331D01*
X278736038Y-114575271D01*
X278424729Y-114263962D01*
X278058669Y-114019369D01*
X277651925Y-113850890D01*
X277220128Y-113765000D01*
X276779872Y-113765000D01*
X276348075Y-113850890D01*
X275941331Y-114019369D01*
X275575271Y-114263962D01*
X275263962Y-114575271D01*
X275019369Y-114941331D01*
X274850890Y-115348075D01*
X274765000Y-115779872D01*
X266438815Y-115779872D01*
X266540704Y-115570429D01*
X266622384Y-115258892D01*
X266641718Y-114937405D01*
X266597961Y-114618325D01*
X266492795Y-114313912D01*
X266399814Y-114139956D01*
X266135413Y-114044192D01*
X265179605Y-115000000D01*
X264820395Y-115000000D01*
X263864587Y-114044192D01*
X263600186Y-114139956D01*
X263459296Y-114429571D01*
X263377616Y-114741108D01*
X263358282Y-115062595D01*
X256635000Y-115062595D01*
X256635000Y-114838967D01*
X256572168Y-114523088D01*
X256448918Y-114225537D01*
X256269987Y-113957748D01*
X256176826Y-113864587D01*
X264044192Y-113864587D01*
X265000000Y-114820395D01*
X265955808Y-113864587D01*
X265860044Y-113600186D01*
X265570429Y-113459296D01*
X265258892Y-113377616D01*
X264937405Y-113358282D01*
X264618325Y-113402039D01*
X264313912Y-113507205D01*
X264139956Y-113600186D01*
X264044192Y-113864587D01*
X256176826Y-113864587D01*
X256042252Y-113730013D01*
X255774463Y-113551082D01*
X255476912Y-113427832D01*
X255161033Y-113365000D01*
X254838967Y-113365000D01*
X254523088Y-113427832D01*
X254225537Y-113551082D01*
X253957748Y-113730013D01*
X253730013Y-113957748D01*
X253551082Y-114225537D01*
X253427832Y-114523088D01*
X253365000Y-114838967D01*
X250635000Y-114838967D01*
X250572168Y-114523088D01*
X250448918Y-114225537D01*
X250269987Y-113957748D01*
X250042252Y-113730013D01*
X249774463Y-113551082D01*
X249760000Y-113545091D01*
X249760000Y-112022708D01*
X249885408Y-112047653D01*
X250089286Y-112047653D01*
X250289245Y-112007879D01*
X250477603Y-111929858D01*
X250647121Y-111816590D01*
X250691058Y-111772653D01*
X250950025Y-111772653D01*
X250987347Y-111776329D01*
X251024669Y-111772653D01*
X251024680Y-111772653D01*
X251136333Y-111761656D01*
X251279594Y-111718199D01*
X251411623Y-111647627D01*
X251527348Y-111552654D01*
X251551151Y-111523650D01*
X254508625Y-108566177D01*
X254523088Y-108572168D01*
X254838967Y-108635000D01*
X255161033Y-108635000D01*
X255476912Y-108572168D01*
X255774463Y-108448918D01*
X256042252Y-108269987D01*
X256269987Y-108042252D01*
X256448918Y-107774463D01*
X256572168Y-107476912D01*
X256635000Y-107161033D01*
X256635000Y-106838967D01*
X256572168Y-106523088D01*
X256448918Y-106225537D01*
X256269987Y-105957748D01*
X256042252Y-105730013D01*
X255774463Y-105551082D01*
X255476912Y-105427832D01*
X255161033Y-105365000D01*
X254838967Y-105365000D01*
X254523088Y-105427832D01*
X254225537Y-105551082D01*
X253957748Y-105730013D01*
X253730013Y-105957748D01*
X253551082Y-106225537D01*
X253427832Y-106523088D01*
X253365000Y-106838967D01*
X253365000Y-107161033D01*
X253427832Y-107476912D01*
X253433823Y-107491375D01*
X250681802Y-110243397D01*
X250647121Y-110208716D01*
X250477603Y-110095448D01*
X250289245Y-110017427D01*
X250089286Y-109977653D01*
X249885408Y-109977653D01*
X249760000Y-110002598D01*
X249760000Y-97834801D01*
X261236200Y-109311002D01*
X261259998Y-109340000D01*
X261375723Y-109434973D01*
X261507752Y-109505545D01*
X261651013Y-109549002D01*
X261762666Y-109559999D01*
X261762674Y-109559999D01*
X261799999Y-109563675D01*
X261837324Y-109559999D01*
X270162679Y-109559999D01*
X270200001Y-109563675D01*
X270237323Y-109559999D01*
X270237334Y-109559999D01*
X270348987Y-109549002D01*
X270492248Y-109505545D01*
X270624277Y-109434973D01*
X270669978Y-109397467D01*
X270858665Y-109435000D01*
X271141335Y-109435000D01*
X271418574Y-109379853D01*
X271679727Y-109271680D01*
X271914759Y-109114637D01*
X272114637Y-108914759D01*
X272271680Y-108679727D01*
X272379853Y-108418574D01*
X272435000Y-108141335D01*
X272435000Y-107858665D01*
X272379853Y-107581426D01*
X272271680Y-107320273D01*
X272114637Y-107085241D01*
X271914759Y-106885363D01*
X271714131Y-106751308D01*
X271741514Y-106736671D01*
X271813097Y-106492702D01*
X271000000Y-105679605D01*
X270186903Y-106492702D01*
X270258486Y-106736671D01*
X270287341Y-106750324D01*
X270085241Y-106885363D01*
X269885363Y-107085241D01*
X269728320Y-107320273D01*
X269620147Y-107581426D01*
X269565000Y-107858665D01*
X269565000Y-108039999D01*
X266219607Y-108039999D01*
X266135415Y-107955807D01*
X266399814Y-107860044D01*
X266540704Y-107570429D01*
X266622384Y-107258892D01*
X266641718Y-106937405D01*
X266597961Y-106618325D01*
X266492795Y-106313912D01*
X266399814Y-106139956D01*
X266135413Y-106044192D01*
X265179605Y-107000000D01*
X265193748Y-107014143D01*
X265014143Y-107193748D01*
X265000000Y-107179605D01*
X264985858Y-107193748D01*
X264806253Y-107014143D01*
X264820395Y-107000000D01*
X263864587Y-106044192D01*
X263600186Y-106139956D01*
X263459296Y-106429571D01*
X263377616Y-106741108D01*
X263358282Y-107062595D01*
X263402039Y-107381675D01*
X263507205Y-107686088D01*
X263600186Y-107860044D01*
X263864585Y-107955807D01*
X263780393Y-108039999D01*
X262114801Y-108039999D01*
X259939389Y-105864587D01*
X264044192Y-105864587D01*
X265000000Y-106820395D01*
X265955808Y-105864587D01*
X265860044Y-105600186D01*
X265799046Y-105570512D01*
X269559783Y-105570512D01*
X269601213Y-105850130D01*
X269696397Y-106116292D01*
X269763329Y-106241514D01*
X270007298Y-106313097D01*
X270820395Y-105500000D01*
X271179605Y-105500000D01*
X271992702Y-106313097D01*
X272236671Y-106241514D01*
X272357571Y-105986004D01*
X272426300Y-105711816D01*
X272440217Y-105429488D01*
X272398787Y-105149870D01*
X272303603Y-104883708D01*
X272236671Y-104758486D01*
X271992702Y-104686903D01*
X271179605Y-105500000D01*
X270820395Y-105500000D01*
X270007298Y-104686903D01*
X269763329Y-104758486D01*
X269642429Y-105013996D01*
X269573700Y-105288184D01*
X269559783Y-105570512D01*
X265799046Y-105570512D01*
X265570429Y-105459296D01*
X265258892Y-105377616D01*
X264937405Y-105358282D01*
X264618325Y-105402039D01*
X264313912Y-105507205D01*
X264139956Y-105600186D01*
X264044192Y-105864587D01*
X259939389Y-105864587D01*
X258582100Y-104507298D01*
X270186903Y-104507298D01*
X271000000Y-105320395D01*
X271813097Y-104507298D01*
X271741514Y-104263329D01*
X271486004Y-104142429D01*
X271211816Y-104073700D01*
X270929488Y-104059783D01*
X270649870Y-104101213D01*
X270383708Y-104196397D01*
X270258486Y-104263329D01*
X270186903Y-104507298D01*
X258582100Y-104507298D01*
X251903919Y-97829117D01*
X255425000Y-97829117D01*
X255425000Y-98170883D01*
X255491675Y-98506081D01*
X255622463Y-98821831D01*
X255812337Y-99105998D01*
X256054002Y-99347663D01*
X256338169Y-99537537D01*
X256653919Y-99668325D01*
X256989117Y-99735000D01*
X257330883Y-99735000D01*
X257666081Y-99668325D01*
X257981831Y-99537537D01*
X258265998Y-99347663D01*
X258507663Y-99105998D01*
X258697537Y-98821831D01*
X258723148Y-98760000D01*
X261445680Y-98760000D01*
X261551082Y-99014463D01*
X261730013Y-99282252D01*
X261957748Y-99509987D01*
X262225537Y-99688918D01*
X262523088Y-99812168D01*
X262838967Y-99875000D01*
X263161033Y-99875000D01*
X263476912Y-99812168D01*
X263774463Y-99688918D01*
X264042252Y-99509987D01*
X264269987Y-99282252D01*
X264448918Y-99014463D01*
X264572168Y-98716912D01*
X264635000Y-98401033D01*
X264635000Y-98078967D01*
X264587262Y-97838967D01*
X269365000Y-97838967D01*
X269365000Y-98161033D01*
X269427832Y-98476912D01*
X269551082Y-98774463D01*
X269730013Y-99042252D01*
X269957748Y-99269987D01*
X270225537Y-99448918D01*
X270523088Y-99572168D01*
X270838967Y-99635000D01*
X271161033Y-99635000D01*
X271476912Y-99572168D01*
X271774463Y-99448918D01*
X272042252Y-99269987D01*
X272269987Y-99042252D01*
X272448918Y-98774463D01*
X272572168Y-98476912D01*
X272635000Y-98161033D01*
X272635000Y-97838967D01*
X272572168Y-97523088D01*
X272448918Y-97225537D01*
X272269987Y-96957748D01*
X272042252Y-96730013D01*
X271774463Y-96551082D01*
X271476912Y-96427832D01*
X271161033Y-96365000D01*
X270838967Y-96365000D01*
X270523088Y-96427832D01*
X270225537Y-96551082D01*
X269957748Y-96730013D01*
X269730013Y-96957748D01*
X269551082Y-97225537D01*
X269427832Y-97523088D01*
X269365000Y-97838967D01*
X264587262Y-97838967D01*
X264572168Y-97763088D01*
X264448918Y-97465537D01*
X264269987Y-97197748D01*
X264042252Y-96970013D01*
X263774463Y-96791082D01*
X263476912Y-96667832D01*
X263161033Y-96605000D01*
X262838967Y-96605000D01*
X262523088Y-96667832D01*
X262225537Y-96791082D01*
X261957748Y-96970013D01*
X261730013Y-97197748D01*
X261701781Y-97240000D01*
X258723148Y-97240000D01*
X258697537Y-97178169D01*
X258507663Y-96894002D01*
X258265998Y-96652337D01*
X257981831Y-96462463D01*
X257666081Y-96331675D01*
X257330883Y-96265000D01*
X256989117Y-96265000D01*
X256653919Y-96331675D01*
X256338169Y-96462463D01*
X256054002Y-96652337D01*
X255812337Y-96894002D01*
X255622463Y-97178169D01*
X255491675Y-97493919D01*
X255425000Y-97829117D01*
X251903919Y-97829117D01*
X249035000Y-94960199D01*
X249035000Y-94898061D01*
X248995226Y-94698102D01*
X248917205Y-94509744D01*
X248803937Y-94340226D01*
X248732755Y-94269044D01*
X251241800Y-91760000D01*
X255596852Y-91760000D01*
X255622463Y-91821831D01*
X255812337Y-92105998D01*
X256054002Y-92347663D01*
X256338169Y-92537537D01*
X256653919Y-92668325D01*
X256989117Y-92735000D01*
X257330883Y-92735000D01*
X257666081Y-92668325D01*
X257981831Y-92537537D01*
X258265998Y-92347663D01*
X258507663Y-92105998D01*
X258697537Y-91821831D01*
X258828325Y-91506081D01*
X258895000Y-91170883D01*
X258895000Y-90829117D01*
X258828325Y-90493919D01*
X258697537Y-90178169D01*
X258507663Y-89894002D01*
X258265998Y-89652337D01*
X257981831Y-89462463D01*
X257666081Y-89331675D01*
X257330883Y-89265000D01*
X256989117Y-89265000D01*
X256653919Y-89331675D01*
X256592088Y-89357286D01*
X251063919Y-83829117D01*
X255425000Y-83829117D01*
X255425000Y-84170883D01*
X255491675Y-84506081D01*
X255622463Y-84821831D01*
X255812337Y-85105998D01*
X256054002Y-85347663D01*
X256338169Y-85537537D01*
X256653919Y-85668325D01*
X256989117Y-85735000D01*
X257330883Y-85735000D01*
X257666081Y-85668325D01*
X257981831Y-85537537D01*
X258265998Y-85347663D01*
X258507663Y-85105998D01*
X258697537Y-84821831D01*
X258828325Y-84506081D01*
X258895000Y-84170883D01*
X258895000Y-83829117D01*
X258828325Y-83493919D01*
X258697537Y-83178169D01*
X258507663Y-82894002D01*
X258452628Y-82838967D01*
X261365000Y-82838967D01*
X261365000Y-83161033D01*
X261427832Y-83476912D01*
X261551082Y-83774463D01*
X261730013Y-84042252D01*
X261957748Y-84269987D01*
X262225537Y-84448918D01*
X262523088Y-84572168D01*
X262838967Y-84635000D01*
X263161033Y-84635000D01*
X263476912Y-84572168D01*
X263774463Y-84448918D01*
X264042252Y-84269987D01*
X264269987Y-84042252D01*
X264448918Y-83774463D01*
X264572168Y-83476912D01*
X264635000Y-83161033D01*
X264635000Y-82838967D01*
X264587262Y-82598967D01*
X269365000Y-82598967D01*
X269365000Y-82921033D01*
X269427832Y-83236912D01*
X269551082Y-83534463D01*
X269730013Y-83802252D01*
X269957748Y-84029987D01*
X270225537Y-84208918D01*
X270523088Y-84332168D01*
X270838967Y-84395000D01*
X271161033Y-84395000D01*
X271476912Y-84332168D01*
X271774463Y-84208918D01*
X272042252Y-84029987D01*
X272269987Y-83802252D01*
X272284940Y-83779872D01*
X274765000Y-83779872D01*
X274765000Y-84220128D01*
X274850890Y-84651925D01*
X275019369Y-85058669D01*
X275263962Y-85424729D01*
X275575271Y-85736038D01*
X275941331Y-85980631D01*
X276348075Y-86149110D01*
X276779872Y-86235000D01*
X277220128Y-86235000D01*
X277651925Y-86149110D01*
X278058669Y-85980631D01*
X278424729Y-85736038D01*
X278736038Y-85424729D01*
X278980631Y-85058669D01*
X279149110Y-84651925D01*
X279235000Y-84220128D01*
X279235000Y-83779872D01*
X279149110Y-83348075D01*
X278980631Y-82941331D01*
X278736038Y-82575271D01*
X278424729Y-82263962D01*
X278058669Y-82019369D01*
X277651925Y-81850890D01*
X277220128Y-81765000D01*
X276779872Y-81765000D01*
X276348075Y-81850890D01*
X275941331Y-82019369D01*
X275575271Y-82263962D01*
X275263962Y-82575271D01*
X275019369Y-82941331D01*
X274850890Y-83348075D01*
X274765000Y-83779872D01*
X272284940Y-83779872D01*
X272448918Y-83534463D01*
X272572168Y-83236912D01*
X272635000Y-82921033D01*
X272635000Y-82598967D01*
X272572168Y-82283088D01*
X272448918Y-81985537D01*
X272269987Y-81717748D01*
X272042252Y-81490013D01*
X271774463Y-81311082D01*
X271476912Y-81187832D01*
X271161033Y-81125000D01*
X270838967Y-81125000D01*
X270523088Y-81187832D01*
X270225537Y-81311082D01*
X269957748Y-81490013D01*
X269730013Y-81717748D01*
X269551082Y-81985537D01*
X269427832Y-82283088D01*
X269365000Y-82598967D01*
X264587262Y-82598967D01*
X264572168Y-82523088D01*
X264448918Y-82225537D01*
X264269987Y-81957748D01*
X264042252Y-81730013D01*
X263774463Y-81551082D01*
X263476912Y-81427832D01*
X263161033Y-81365000D01*
X262838967Y-81365000D01*
X262523088Y-81427832D01*
X262225537Y-81551082D01*
X261957748Y-81730013D01*
X261730013Y-81957748D01*
X261551082Y-82225537D01*
X261427832Y-82523088D01*
X261365000Y-82838967D01*
X258452628Y-82838967D01*
X258265998Y-82652337D01*
X257981831Y-82462463D01*
X257666081Y-82331675D01*
X257330883Y-82265000D01*
X256989117Y-82265000D01*
X256653919Y-82331675D01*
X256338169Y-82462463D01*
X256054002Y-82652337D01*
X255812337Y-82894002D01*
X255622463Y-83178169D01*
X255491675Y-83493919D01*
X255425000Y-83829117D01*
X251063919Y-83829117D01*
X250723804Y-83489003D01*
X250700001Y-83459999D01*
X250584276Y-83365026D01*
X250452247Y-83294454D01*
X250308986Y-83250997D01*
X250197333Y-83240000D01*
X250197322Y-83240000D01*
X250160000Y-83236324D01*
X250122678Y-83240000D01*
X248738072Y-83240000D01*
X248738072Y-82900000D01*
X248725812Y-82775518D01*
X248689502Y-82655820D01*
X248630537Y-82545506D01*
X248551185Y-82448815D01*
X248454494Y-82369463D01*
X248344180Y-82310498D01*
X248224482Y-82274188D01*
X248100000Y-82261928D01*
X245900000Y-82261928D01*
X245775518Y-82274188D01*
X245655820Y-82310498D01*
X245545506Y-82369463D01*
X245448815Y-82448815D01*
X245369463Y-82545506D01*
X245310498Y-82655820D01*
X245274188Y-82775518D01*
X245261928Y-82900000D01*
X245261928Y-85100000D01*
X245274188Y-85224482D01*
X245310498Y-85344180D01*
X245369463Y-85454494D01*
X245448815Y-85551185D01*
X245545506Y-85630537D01*
X245655820Y-85689502D01*
X245775518Y-85725812D01*
X245900000Y-85738072D01*
X248100000Y-85738072D01*
X248224482Y-85725812D01*
X248344180Y-85689502D01*
X248454494Y-85630537D01*
X248551185Y-85551185D01*
X248630537Y-85454494D01*
X248689502Y-85344180D01*
X248725812Y-85224482D01*
X248738072Y-85100000D01*
X248738072Y-84760000D01*
X249845199Y-84760000D01*
X255325198Y-90240000D01*
X250964331Y-90240000D01*
X250926998Y-90236323D01*
X250889665Y-90240000D01*
X250778012Y-90250997D01*
X250634751Y-90294454D01*
X250502722Y-90365026D01*
X250386997Y-90459999D01*
X250363199Y-90488997D01*
X249185001Y-91667195D01*
X249185001Y-89677322D01*
X249188677Y-89639999D01*
X249185001Y-89602676D01*
X249185001Y-89602666D01*
X249174004Y-89491013D01*
X249130547Y-89347752D01*
X249059975Y-89215723D01*
X248965002Y-89099998D01*
X248936004Y-89076200D01*
X247348806Y-87489003D01*
X247325003Y-87459999D01*
X247209278Y-87365026D01*
X247077249Y-87294454D01*
X246933988Y-87250997D01*
X246822335Y-87240000D01*
X246822324Y-87240000D01*
X246785002Y-87236324D01*
X246747680Y-87240000D01*
X244054909Y-87240000D01*
X244048918Y-87225537D01*
X243869987Y-86957748D01*
X243642252Y-86730013D01*
X243374463Y-86551082D01*
X243076912Y-86427832D01*
X242761033Y-86365000D01*
X242438967Y-86365000D01*
X242123088Y-86427832D01*
X241825537Y-86551082D01*
X241557748Y-86730013D01*
X241330013Y-86957748D01*
X241151082Y-87225537D01*
X241027832Y-87523088D01*
X240965000Y-87838967D01*
X240965000Y-88161033D01*
X241027832Y-88476912D01*
X241151082Y-88774463D01*
X241330013Y-89042252D01*
X241557748Y-89269987D01*
X241825537Y-89448918D01*
X242123088Y-89572168D01*
X242438967Y-89635000D01*
X242761033Y-89635000D01*
X243076912Y-89572168D01*
X243374463Y-89448918D01*
X243642252Y-89269987D01*
X243869987Y-89042252D01*
X244048918Y-88774463D01*
X244054909Y-88760000D01*
X246470201Y-88760000D01*
X246972129Y-89261928D01*
X245900000Y-89261928D01*
X245775518Y-89274188D01*
X245655820Y-89310498D01*
X245545506Y-89369463D01*
X245448815Y-89448815D01*
X245369463Y-89545506D01*
X245310498Y-89655820D01*
X245274188Y-89775518D01*
X245261928Y-89900000D01*
X245261928Y-91663270D01*
X243638070Y-93287128D01*
X243526928Y-93265021D01*
X243323050Y-93265021D01*
X243123091Y-93304795D01*
X242934733Y-93382816D01*
X242765215Y-93496084D01*
X242621052Y-93640247D01*
X242507784Y-93809765D01*
X242505611Y-93815011D01*
X223181286Y-93815011D01*
X223271680Y-93679727D01*
X223379853Y-93418574D01*
X223435000Y-93141335D01*
X223435000Y-92858665D01*
X223379853Y-92581426D01*
X223271680Y-92320273D01*
X223114637Y-92085241D01*
X222914759Y-91885363D01*
X222679727Y-91728320D01*
X222418574Y-91620147D01*
X222141335Y-91565000D01*
X221858665Y-91565000D01*
X221581426Y-91620147D01*
X221320273Y-91728320D01*
X221085241Y-91885363D01*
X220885363Y-92085241D01*
X220728320Y-92320273D01*
X220620147Y-92581426D01*
X220565000Y-92858665D01*
X220565000Y-93141335D01*
X220620147Y-93418574D01*
X220728320Y-93679727D01*
X220818714Y-93815011D01*
X216181286Y-93815011D01*
X216271680Y-93679727D01*
X216379853Y-93418574D01*
X216435000Y-93141335D01*
X216435000Y-92858665D01*
X216379853Y-92581426D01*
X216271680Y-92320273D01*
X216114637Y-92085241D01*
X215914759Y-91885363D01*
X215679727Y-91728320D01*
X215418574Y-91620147D01*
X215141335Y-91565000D01*
X214858665Y-91565000D01*
X214581426Y-91620147D01*
X214320273Y-91728320D01*
X214085241Y-91885363D01*
X213885363Y-92085241D01*
X213728320Y-92320273D01*
X213620147Y-92581426D01*
X213565000Y-92858665D01*
X213565000Y-93141335D01*
X213601312Y-93323887D01*
X213560198Y-93365001D01*
X209390509Y-93365001D01*
X209435000Y-93141335D01*
X209435000Y-92858665D01*
X209379853Y-92581426D01*
X209271680Y-92320273D01*
X209114637Y-92085241D01*
X208914759Y-91885363D01*
X208679727Y-91728320D01*
X208418574Y-91620147D01*
X208141335Y-91565000D01*
X207858665Y-91565000D01*
X207676114Y-91601312D01*
X203563804Y-87489003D01*
X203540001Y-87459999D01*
X203424276Y-87365026D01*
X203292247Y-87294454D01*
X203148986Y-87250997D01*
X203037333Y-87240000D01*
X203037322Y-87240000D01*
X203000000Y-87236324D01*
X202962678Y-87240000D01*
X193703711Y-87240000D01*
X193659774Y-87196063D01*
X193490256Y-87082795D01*
X193301898Y-87004774D01*
X193277898Y-87000000D01*
X233361928Y-87000000D01*
X233361928Y-89000000D01*
X233374188Y-89124482D01*
X233410498Y-89244180D01*
X233469463Y-89354494D01*
X233548815Y-89451185D01*
X233645506Y-89530537D01*
X233755820Y-89589502D01*
X233875518Y-89625812D01*
X234000000Y-89638072D01*
X236000000Y-89638072D01*
X236124482Y-89625812D01*
X236244180Y-89589502D01*
X236354494Y-89530537D01*
X236451185Y-89451185D01*
X236530537Y-89354494D01*
X236589502Y-89244180D01*
X236625812Y-89124482D01*
X236638072Y-89000000D01*
X236638072Y-87000000D01*
X236625812Y-86875518D01*
X236589502Y-86755820D01*
X236530537Y-86645506D01*
X236451185Y-86548815D01*
X236354494Y-86469463D01*
X236244180Y-86410498D01*
X236124482Y-86374188D01*
X236000000Y-86361928D01*
X234000000Y-86361928D01*
X233875518Y-86374188D01*
X233755820Y-86410498D01*
X233645506Y-86469463D01*
X233548815Y-86548815D01*
X233469463Y-86645506D01*
X233410498Y-86755820D01*
X233374188Y-86875518D01*
X233361928Y-87000000D01*
X193277898Y-87000000D01*
X193101939Y-86965000D01*
X192898061Y-86965000D01*
X192698102Y-87004774D01*
X192509744Y-87082795D01*
X192340226Y-87196063D01*
X192196063Y-87340226D01*
X192082795Y-87509744D01*
X192004774Y-87698102D01*
X191965000Y-87898061D01*
X191965000Y-88101939D01*
X192004774Y-88301898D01*
X192082795Y-88490256D01*
X192196063Y-88659774D01*
X192340226Y-88803937D01*
X192509744Y-88917205D01*
X192698102Y-88995226D01*
X192898061Y-89035000D01*
X193101939Y-89035000D01*
X193301898Y-88995226D01*
X193490256Y-88917205D01*
X193659774Y-88803937D01*
X193703711Y-88760000D01*
X202685199Y-88760000D01*
X204165199Y-90240000D01*
X193703711Y-90240000D01*
X193659774Y-90196063D01*
X193490256Y-90082795D01*
X193301898Y-90004774D01*
X193101939Y-89965000D01*
X192898061Y-89965000D01*
X192698102Y-90004774D01*
X192509744Y-90082795D01*
X192340226Y-90196063D01*
X192196063Y-90340226D01*
X192082795Y-90509744D01*
X192004774Y-90698102D01*
X192000000Y-90722103D01*
X191995226Y-90698102D01*
X191917205Y-90509744D01*
X191803937Y-90340226D01*
X191659774Y-90196063D01*
X191490256Y-90082795D01*
X191301898Y-90004774D01*
X191101939Y-89965000D01*
X190898061Y-89965000D01*
X190698102Y-90004774D01*
X190509744Y-90082795D01*
X190340226Y-90196063D01*
X190196063Y-90340226D01*
X190082795Y-90509744D01*
X190004774Y-90698102D01*
X189965000Y-90898061D01*
X189965000Y-90960198D01*
X187678797Y-93246402D01*
X187649799Y-93270200D01*
X187626001Y-93299198D01*
X187626000Y-93299199D01*
X187554825Y-93385925D01*
X187484253Y-93517955D01*
X187477566Y-93540001D01*
X187447158Y-93640247D01*
X187440797Y-93661216D01*
X187426123Y-93810201D01*
X179127000Y-93810201D01*
X179127000Y-83779872D01*
X180765000Y-83779872D01*
X180765000Y-84220128D01*
X180850890Y-84651925D01*
X181019369Y-85058669D01*
X181263962Y-85424729D01*
X181575271Y-85736038D01*
X181941331Y-85980631D01*
X182348075Y-86149110D01*
X182779872Y-86235000D01*
X183220128Y-86235000D01*
X183651925Y-86149110D01*
X184058669Y-85980631D01*
X184424729Y-85736038D01*
X184736038Y-85424729D01*
X184980631Y-85058669D01*
X185149110Y-84651925D01*
X185235000Y-84220128D01*
X185235000Y-83779872D01*
X185220584Y-83707394D01*
X187879800Y-83707394D01*
X187879800Y-84022606D01*
X187941294Y-84331761D01*
X188061921Y-84622979D01*
X188237043Y-84885068D01*
X188459932Y-85107957D01*
X188722021Y-85283079D01*
X189013239Y-85403706D01*
X189322394Y-85465200D01*
X189637606Y-85465200D01*
X189946761Y-85403706D01*
X190237979Y-85283079D01*
X190500068Y-85107957D01*
X190632431Y-84975594D01*
X191089011Y-84975594D01*
X191180572Y-85236438D01*
X191464256Y-85373851D01*
X191769296Y-85453279D01*
X192083971Y-85471670D01*
X192396188Y-85428318D01*
X192693948Y-85324888D01*
X192859428Y-85236438D01*
X192950989Y-84975594D01*
X192020000Y-84044605D01*
X191089011Y-84975594D01*
X190632431Y-84975594D01*
X190722957Y-84885068D01*
X190806592Y-84759899D01*
X190909406Y-84795989D01*
X191840395Y-83865000D01*
X192199605Y-83865000D01*
X193130594Y-84795989D01*
X193233408Y-84759899D01*
X193317043Y-84885068D01*
X193539932Y-85107957D01*
X193802021Y-85283079D01*
X194093239Y-85403706D01*
X194402394Y-85465200D01*
X194717606Y-85465200D01*
X195026761Y-85403706D01*
X195317979Y-85283079D01*
X195580068Y-85107957D01*
X195802957Y-84885068D01*
X195830000Y-84844595D01*
X195857043Y-84885068D01*
X196079932Y-85107957D01*
X196342021Y-85283079D01*
X196633239Y-85403706D01*
X196942394Y-85465200D01*
X197257606Y-85465200D01*
X197566761Y-85403706D01*
X197857979Y-85283079D01*
X198120068Y-85107957D01*
X198342957Y-84885068D01*
X198370000Y-84844595D01*
X198397043Y-84885068D01*
X198619932Y-85107957D01*
X198882021Y-85283079D01*
X199173239Y-85403706D01*
X199482394Y-85465200D01*
X199797606Y-85465200D01*
X200106761Y-85403706D01*
X200397979Y-85283079D01*
X200660068Y-85107957D01*
X200882957Y-84885068D01*
X200910000Y-84844595D01*
X200937043Y-84885068D01*
X201159932Y-85107957D01*
X201422021Y-85283079D01*
X201713239Y-85403706D01*
X202022394Y-85465200D01*
X202337606Y-85465200D01*
X202646761Y-85403706D01*
X202937979Y-85283079D01*
X203200068Y-85107957D01*
X203422957Y-84885068D01*
X203450000Y-84844595D01*
X203477043Y-84885068D01*
X203699932Y-85107957D01*
X203962021Y-85283079D01*
X204253239Y-85403706D01*
X204562394Y-85465200D01*
X204877606Y-85465200D01*
X205186761Y-85403706D01*
X205477979Y-85283079D01*
X205740068Y-85107957D01*
X205962957Y-84885068D01*
X205990000Y-84844595D01*
X206017043Y-84885068D01*
X206239932Y-85107957D01*
X206502021Y-85283079D01*
X206793239Y-85403706D01*
X207102394Y-85465200D01*
X207417606Y-85465200D01*
X207726761Y-85403706D01*
X208017979Y-85283079D01*
X208280068Y-85107957D01*
X208502957Y-84885068D01*
X208530000Y-84844595D01*
X208557043Y-84885068D01*
X208779932Y-85107957D01*
X209042021Y-85283079D01*
X209333239Y-85403706D01*
X209642394Y-85465200D01*
X209957606Y-85465200D01*
X210266761Y-85403706D01*
X210557979Y-85283079D01*
X210820068Y-85107957D01*
X211042957Y-84885068D01*
X211070000Y-84844595D01*
X211097043Y-84885068D01*
X211319932Y-85107957D01*
X211582021Y-85283079D01*
X211873239Y-85403706D01*
X212182394Y-85465200D01*
X212497606Y-85465200D01*
X212806761Y-85403706D01*
X213097979Y-85283079D01*
X213360068Y-85107957D01*
X213582957Y-84885068D01*
X213610000Y-84844595D01*
X213637043Y-84885068D01*
X213859932Y-85107957D01*
X214122021Y-85283079D01*
X214413239Y-85403706D01*
X214722394Y-85465200D01*
X215037606Y-85465200D01*
X215346761Y-85403706D01*
X215637979Y-85283079D01*
X215900068Y-85107957D01*
X216122957Y-84885068D01*
X216150000Y-84844595D01*
X216177043Y-84885068D01*
X216399932Y-85107957D01*
X216662021Y-85283079D01*
X216953239Y-85403706D01*
X217262394Y-85465200D01*
X217577606Y-85465200D01*
X217886761Y-85403706D01*
X218177979Y-85283079D01*
X218440068Y-85107957D01*
X218662957Y-84885068D01*
X218690000Y-84844595D01*
X218717043Y-84885068D01*
X218939932Y-85107957D01*
X219202021Y-85283079D01*
X219493239Y-85403706D01*
X219802394Y-85465200D01*
X220117606Y-85465200D01*
X220426761Y-85403706D01*
X220717979Y-85283079D01*
X220980068Y-85107957D01*
X221202957Y-84885068D01*
X221230000Y-84844595D01*
X221257043Y-84885068D01*
X221479932Y-85107957D01*
X221742021Y-85283079D01*
X222033239Y-85403706D01*
X222342394Y-85465200D01*
X222657606Y-85465200D01*
X222966761Y-85403706D01*
X223257979Y-85283079D01*
X223520068Y-85107957D01*
X223742957Y-84885068D01*
X223770000Y-84844595D01*
X223797043Y-84885068D01*
X224019932Y-85107957D01*
X224282021Y-85283079D01*
X224573239Y-85403706D01*
X224882394Y-85465200D01*
X225197606Y-85465200D01*
X225506761Y-85403706D01*
X225797979Y-85283079D01*
X226060068Y-85107957D01*
X226282957Y-84885068D01*
X226458079Y-84622979D01*
X226578706Y-84331761D01*
X226640200Y-84022606D01*
X226640200Y-83707394D01*
X226578706Y-83398239D01*
X226458079Y-83107021D01*
X226282957Y-82844932D01*
X226060068Y-82622043D01*
X225797979Y-82446921D01*
X225506761Y-82326294D01*
X225197606Y-82264800D01*
X224882394Y-82264800D01*
X224573239Y-82326294D01*
X224282021Y-82446921D01*
X224019932Y-82622043D01*
X223797043Y-82844932D01*
X223770000Y-82885405D01*
X223742957Y-82844932D01*
X223520068Y-82622043D01*
X223257979Y-82446921D01*
X222966761Y-82326294D01*
X222657606Y-82264800D01*
X222342394Y-82264800D01*
X222033239Y-82326294D01*
X221742021Y-82446921D01*
X221479932Y-82622043D01*
X221257043Y-82844932D01*
X221230000Y-82885405D01*
X221202957Y-82844932D01*
X220980068Y-82622043D01*
X220717979Y-82446921D01*
X220426761Y-82326294D01*
X220117606Y-82264800D01*
X219802394Y-82264800D01*
X219493239Y-82326294D01*
X219202021Y-82446921D01*
X218939932Y-82622043D01*
X218717043Y-82844932D01*
X218690000Y-82885405D01*
X218662957Y-82844932D01*
X218440068Y-82622043D01*
X218177979Y-82446921D01*
X217886761Y-82326294D01*
X217577606Y-82264800D01*
X217262394Y-82264800D01*
X216953239Y-82326294D01*
X216662021Y-82446921D01*
X216399932Y-82622043D01*
X216177043Y-82844932D01*
X216150000Y-82885405D01*
X216122957Y-82844932D01*
X215900068Y-82622043D01*
X215637979Y-82446921D01*
X215346761Y-82326294D01*
X215037606Y-82264800D01*
X214722394Y-82264800D01*
X214413239Y-82326294D01*
X214122021Y-82446921D01*
X213859932Y-82622043D01*
X213637043Y-82844932D01*
X213610000Y-82885405D01*
X213582957Y-82844932D01*
X213360068Y-82622043D01*
X213097979Y-82446921D01*
X212806761Y-82326294D01*
X212497606Y-82264800D01*
X212182394Y-82264800D01*
X211873239Y-82326294D01*
X211582021Y-82446921D01*
X211319932Y-82622043D01*
X211097043Y-82844932D01*
X211070000Y-82885405D01*
X211042957Y-82844932D01*
X210820068Y-82622043D01*
X210557979Y-82446921D01*
X210266761Y-82326294D01*
X209957606Y-82264800D01*
X209642394Y-82264800D01*
X209333239Y-82326294D01*
X209042021Y-82446921D01*
X208779932Y-82622043D01*
X208557043Y-82844932D01*
X208530000Y-82885405D01*
X208502957Y-82844932D01*
X208280068Y-82622043D01*
X208017979Y-82446921D01*
X207726761Y-82326294D01*
X207417606Y-82264800D01*
X207102394Y-82264800D01*
X206793239Y-82326294D01*
X206502021Y-82446921D01*
X206239932Y-82622043D01*
X206017043Y-82844932D01*
X205990000Y-82885405D01*
X205962957Y-82844932D01*
X205740068Y-82622043D01*
X205477979Y-82446921D01*
X205186761Y-82326294D01*
X204877606Y-82264800D01*
X204562394Y-82264800D01*
X204253239Y-82326294D01*
X203962021Y-82446921D01*
X203699932Y-82622043D01*
X203477043Y-82844932D01*
X203450000Y-82885405D01*
X203422957Y-82844932D01*
X203200068Y-82622043D01*
X202937979Y-82446921D01*
X202646761Y-82326294D01*
X202337606Y-82264800D01*
X202022394Y-82264800D01*
X201713239Y-82326294D01*
X201422021Y-82446921D01*
X201159932Y-82622043D01*
X200937043Y-82844932D01*
X200910000Y-82885405D01*
X200882957Y-82844932D01*
X200660068Y-82622043D01*
X200397979Y-82446921D01*
X200106761Y-82326294D01*
X199797606Y-82264800D01*
X199482394Y-82264800D01*
X199173239Y-82326294D01*
X198882021Y-82446921D01*
X198619932Y-82622043D01*
X198397043Y-82844932D01*
X198370000Y-82885405D01*
X198342957Y-82844932D01*
X198120068Y-82622043D01*
X197857979Y-82446921D01*
X197566761Y-82326294D01*
X197257606Y-82264800D01*
X196942394Y-82264800D01*
X196633239Y-82326294D01*
X196342021Y-82446921D01*
X196079932Y-82622043D01*
X195857043Y-82844932D01*
X195830000Y-82885405D01*
X195802957Y-82844932D01*
X195580068Y-82622043D01*
X195317979Y-82446921D01*
X195026761Y-82326294D01*
X194717606Y-82264800D01*
X194402394Y-82264800D01*
X194093239Y-82326294D01*
X193802021Y-82446921D01*
X193539932Y-82622043D01*
X193317043Y-82844932D01*
X193233408Y-82970101D01*
X193130594Y-82934011D01*
X192199605Y-83865000D01*
X191840395Y-83865000D01*
X190909406Y-82934011D01*
X190806592Y-82970101D01*
X190722957Y-82844932D01*
X190632431Y-82754406D01*
X191089011Y-82754406D01*
X192020000Y-83685395D01*
X192950989Y-82754406D01*
X192859428Y-82493562D01*
X192575744Y-82356149D01*
X192270704Y-82276721D01*
X191956029Y-82258330D01*
X191643812Y-82301682D01*
X191346052Y-82405112D01*
X191180572Y-82493562D01*
X191089011Y-82754406D01*
X190632431Y-82754406D01*
X190500068Y-82622043D01*
X190237979Y-82446921D01*
X189946761Y-82326294D01*
X189637606Y-82264800D01*
X189322394Y-82264800D01*
X189013239Y-82326294D01*
X188722021Y-82446921D01*
X188459932Y-82622043D01*
X188237043Y-82844932D01*
X188061921Y-83107021D01*
X187941294Y-83398239D01*
X187879800Y-83707394D01*
X185220584Y-83707394D01*
X185149110Y-83348075D01*
X184980631Y-82941331D01*
X184736038Y-82575271D01*
X184424729Y-82263962D01*
X184058669Y-82019369D01*
X183651925Y-81850890D01*
X183220128Y-81765000D01*
X182779872Y-81765000D01*
X182348075Y-81850890D01*
X181941331Y-82019369D01*
X181575271Y-82263962D01*
X181263962Y-82575271D01*
X181019369Y-82941331D01*
X180850890Y-83348075D01*
X180765000Y-83779872D01*
X179127000Y-83779872D01*
X179127000Y-79127000D01*
X280873000Y-79127000D01*
X280873000Y-135873000D01*
%TA.AperFunction,Conductor*%
D30*
G36*
X280873000Y-135873000D02*
G01*
X179127000Y-135873000D01*
X179127000Y-129210000D01*
X272215000Y-129210000D01*
X272215000Y-133030000D01*
X277785000Y-133030000D01*
X277785000Y-129210000D01*
X272215000Y-129210000D01*
X179127000Y-129210000D01*
X179127000Y-123415000D01*
X254695953Y-123415000D01*
X254695953Y-129035000D01*
X279304048Y-129035000D01*
X279304048Y-123415000D01*
X254695953Y-123415000D01*
X179127000Y-123415000D01*
X179127000Y-115779872D01*
X180765000Y-115779872D01*
X180765000Y-116220128D01*
X180850890Y-116651925D01*
X181019369Y-117058669D01*
X181263962Y-117424729D01*
X181575271Y-117736038D01*
X181941331Y-117980631D01*
X182348075Y-118149110D01*
X182779872Y-118235000D01*
X183220128Y-118235000D01*
X183651925Y-118149110D01*
X184058669Y-117980631D01*
X184424729Y-117736038D01*
X184736038Y-117424729D01*
X184980631Y-117058669D01*
X185149110Y-116651925D01*
X185235000Y-116220128D01*
X185235000Y-115779872D01*
X185149110Y-115348075D01*
X184980631Y-114941331D01*
X184736038Y-114575271D01*
X184424729Y-114263962D01*
X184403834Y-114250000D01*
X189511928Y-114250000D01*
X189511928Y-115750000D01*
X189528992Y-115923254D01*
X189579528Y-116089850D01*
X189661595Y-116243386D01*
X189772038Y-116377962D01*
X189906614Y-116488405D01*
X190060150Y-116570472D01*
X190226746Y-116621008D01*
X190400000Y-116638072D01*
X191600000Y-116638072D01*
X191773254Y-116621008D01*
X191939850Y-116570472D01*
X192093386Y-116488405D01*
X192227962Y-116377962D01*
X192338405Y-116243386D01*
X192392777Y-116141663D01*
X192444866Y-116205134D01*
X192670987Y-116390706D01*
X192928967Y-116528599D01*
X193208890Y-116613513D01*
X193500000Y-116642185D01*
X193791111Y-116613513D01*
X194071034Y-116528599D01*
X194329014Y-116390706D01*
X194555134Y-116205134D01*
X194740706Y-115979014D01*
X194878599Y-115721033D01*
X194963513Y-115441110D01*
X194985000Y-115222949D01*
X194985000Y-114777050D01*
X194963513Y-114558889D01*
X194878599Y-114278966D01*
X194782940Y-114100000D01*
X198461928Y-114100000D01*
X198461928Y-115900000D01*
X198474188Y-116024482D01*
X198510498Y-116144180D01*
X198569463Y-116254494D01*
X198648815Y-116351185D01*
X198745506Y-116430537D01*
X198855820Y-116489502D01*
X198975518Y-116525812D01*
X199100000Y-116538072D01*
X200900000Y-116538072D01*
X201024482Y-116525812D01*
X201144180Y-116489502D01*
X201254494Y-116430537D01*
X201351185Y-116351185D01*
X201430537Y-116254494D01*
X201489502Y-116144180D01*
X201492813Y-116133265D01*
X201539578Y-116180030D01*
X201655526Y-116064082D01*
X201739208Y-116318261D01*
X202011775Y-116449158D01*
X202304642Y-116524365D01*
X202606553Y-116540991D01*
X202905907Y-116498397D01*
X203191199Y-116398222D01*
X203340792Y-116318261D01*
X203424475Y-116064080D01*
X202540000Y-115179605D01*
X202525858Y-115193748D01*
X202346253Y-115014143D01*
X202360395Y-115000000D01*
X202719605Y-115000000D01*
X203604080Y-115884475D01*
X203785049Y-115824895D01*
X203887688Y-115978505D01*
X204101495Y-116192312D01*
X204352905Y-116360299D01*
X204632257Y-116476011D01*
X204928816Y-116535000D01*
X205231184Y-116535000D01*
X205527743Y-116476011D01*
X205807095Y-116360299D01*
X206058505Y-116192312D01*
X206272312Y-115978505D01*
X206440299Y-115727095D01*
X206556011Y-115447743D01*
X206615000Y-115151184D01*
X206615000Y-114848816D01*
X206556011Y-114552257D01*
X206440299Y-114272905D01*
X206272312Y-114021495D01*
X206058505Y-113807688D01*
X205807095Y-113639701D01*
X205527743Y-113523989D01*
X205231184Y-113465000D01*
X204928816Y-113465000D01*
X204632257Y-113523989D01*
X204352905Y-113639701D01*
X204101495Y-113807688D01*
X203887688Y-114021495D01*
X203785049Y-114175105D01*
X203604080Y-114115525D01*
X202719605Y-115000000D01*
X202360395Y-115000000D01*
X202346253Y-114985858D01*
X202525858Y-114806253D01*
X202540000Y-114820395D01*
X203424475Y-113935920D01*
X203340792Y-113681739D01*
X203068225Y-113550842D01*
X202775358Y-113475635D01*
X202473447Y-113459009D01*
X202174093Y-113501603D01*
X201888801Y-113601778D01*
X201739208Y-113681739D01*
X201655526Y-113935918D01*
X201539578Y-113819970D01*
X201492813Y-113866735D01*
X201489502Y-113855820D01*
X201430537Y-113745506D01*
X201351185Y-113648815D01*
X201254494Y-113569463D01*
X201144180Y-113510498D01*
X201024482Y-113474188D01*
X200900000Y-113461928D01*
X199100000Y-113461928D01*
X198975518Y-113474188D01*
X198855820Y-113510498D01*
X198745506Y-113569463D01*
X198648815Y-113648815D01*
X198569463Y-113745506D01*
X198510498Y-113855820D01*
X198474188Y-113975518D01*
X198461928Y-114100000D01*
X194782940Y-114100000D01*
X194740706Y-114020986D01*
X194555134Y-113794866D01*
X194329013Y-113609294D01*
X194071033Y-113471401D01*
X193791110Y-113386487D01*
X193500000Y-113357815D01*
X193208889Y-113386487D01*
X192928966Y-113471401D01*
X192670986Y-113609294D01*
X192444866Y-113794866D01*
X192392777Y-113858337D01*
X192338405Y-113756614D01*
X192227962Y-113622038D01*
X192093386Y-113511595D01*
X191939850Y-113429528D01*
X191773254Y-113378992D01*
X191600000Y-113361928D01*
X190400000Y-113361928D01*
X190226746Y-113378992D01*
X190060150Y-113429528D01*
X189906614Y-113511595D01*
X189772038Y-113622038D01*
X189661595Y-113756614D01*
X189579528Y-113910150D01*
X189528992Y-114076746D01*
X189511928Y-114250000D01*
X184403834Y-114250000D01*
X184058669Y-114019369D01*
X183651925Y-113850890D01*
X183220128Y-113765000D01*
X182779872Y-113765000D01*
X182348075Y-113850890D01*
X181941331Y-114019369D01*
X181575271Y-114263962D01*
X181263962Y-114575271D01*
X181019369Y-114941331D01*
X180850890Y-115348075D01*
X180765000Y-115779872D01*
X179127000Y-115779872D01*
X179127000Y-93810201D01*
X187426123Y-93810201D01*
X187429800Y-93847534D01*
X187429799Y-110152477D01*
X187426123Y-110189799D01*
X187429799Y-110227121D01*
X187429799Y-110227131D01*
X187440796Y-110338784D01*
X187453479Y-110380594D01*
X187484253Y-110482045D01*
X187554825Y-110614075D01*
X187579370Y-110643983D01*
X187649798Y-110729800D01*
X187678802Y-110753603D01*
X188965000Y-112039802D01*
X188965000Y-112101939D01*
X189004774Y-112301898D01*
X189082795Y-112490256D01*
X189196063Y-112659774D01*
X189340226Y-112803937D01*
X189509744Y-112917205D01*
X189698102Y-112995226D01*
X189898061Y-113035000D01*
X190101939Y-113035000D01*
X190301898Y-112995226D01*
X190490256Y-112917205D01*
X190659774Y-112803937D01*
X190803937Y-112659774D01*
X190917205Y-112490256D01*
X190995226Y-112301898D01*
X191035000Y-112101939D01*
X191035000Y-111898061D01*
X190995226Y-111698102D01*
X190917205Y-111509744D01*
X190803937Y-111340226D01*
X190659774Y-111196063D01*
X190490256Y-111082795D01*
X190301898Y-111004774D01*
X190101939Y-110965000D01*
X190039802Y-110965000D01*
X189894002Y-110819200D01*
X189946761Y-110808706D01*
X190237979Y-110688079D01*
X190500068Y-110512957D01*
X190632431Y-110380594D01*
X191089011Y-110380594D01*
X191180572Y-110641438D01*
X191464256Y-110778851D01*
X191769296Y-110858279D01*
X192083971Y-110876670D01*
X192396188Y-110833318D01*
X192693948Y-110729888D01*
X192859428Y-110641438D01*
X192950989Y-110380594D01*
X192020000Y-109449605D01*
X191089011Y-110380594D01*
X190632431Y-110380594D01*
X190722957Y-110290068D01*
X190806592Y-110164899D01*
X190909406Y-110200989D01*
X191840395Y-109270000D01*
X190909406Y-108339011D01*
X190806592Y-108375101D01*
X190722957Y-108249932D01*
X190632431Y-108159406D01*
X191089011Y-108159406D01*
X192020000Y-109090395D01*
X192950989Y-108159406D01*
X192859428Y-107898562D01*
X192575744Y-107761149D01*
X192270704Y-107681721D01*
X191956029Y-107663330D01*
X191643812Y-107706682D01*
X191346052Y-107810112D01*
X191180572Y-107898562D01*
X191089011Y-108159406D01*
X190632431Y-108159406D01*
X190500068Y-108027043D01*
X190237979Y-107851921D01*
X189946761Y-107731294D01*
X189637606Y-107669800D01*
X189322394Y-107669800D01*
X189013239Y-107731294D01*
X188949799Y-107757572D01*
X188949799Y-94125002D01*
X191039802Y-92035000D01*
X191101939Y-92035000D01*
X191301898Y-91995226D01*
X191490256Y-91917205D01*
X191659774Y-91803937D01*
X191803937Y-91659774D01*
X191917205Y-91490256D01*
X191995226Y-91301898D01*
X192000000Y-91277897D01*
X192004774Y-91301898D01*
X192082795Y-91490256D01*
X192196063Y-91659774D01*
X192340226Y-91803937D01*
X192509744Y-91917205D01*
X192698102Y-91995226D01*
X192898061Y-92035000D01*
X192935604Y-92035000D01*
X192885363Y-92085241D01*
X192728320Y-92320273D01*
X192620147Y-92581426D01*
X192565000Y-92858665D01*
X192565000Y-93141335D01*
X192620147Y-93418574D01*
X192728320Y-93679727D01*
X192885363Y-93914759D01*
X193085241Y-94114637D01*
X193320273Y-94271680D01*
X193581426Y-94379853D01*
X193858665Y-94435000D01*
X194141335Y-94435000D01*
X194418574Y-94379853D01*
X194679727Y-94271680D01*
X194914759Y-94114637D01*
X195114637Y-93914759D01*
X195271680Y-93679727D01*
X195379853Y-93418574D01*
X195435000Y-93141335D01*
X195435000Y-92858665D01*
X195379853Y-92581426D01*
X195271680Y-92320273D01*
X195114637Y-92085241D01*
X194914759Y-91885363D01*
X194727140Y-91760000D01*
X200272860Y-91760000D01*
X200085241Y-91885363D01*
X199885363Y-92085241D01*
X199728320Y-92320273D01*
X199620147Y-92581426D01*
X199565000Y-92858665D01*
X199565000Y-93141335D01*
X199620147Y-93418574D01*
X199728320Y-93679727D01*
X199885363Y-93914759D01*
X200085241Y-94114637D01*
X200320273Y-94271680D01*
X200581426Y-94379853D01*
X200858665Y-94435000D01*
X201141335Y-94435000D01*
X201323886Y-94398688D01*
X202011212Y-95086014D01*
X202035010Y-95115012D01*
X202064008Y-95138810D01*
X202150734Y-95209985D01*
X202200009Y-95236323D01*
X202282764Y-95280557D01*
X202426025Y-95324014D01*
X202537678Y-95335011D01*
X202537688Y-95335011D01*
X202575011Y-95338687D01*
X202612334Y-95335011D01*
X220085185Y-95335011D01*
X216914500Y-98505696D01*
X216803937Y-98340226D01*
X216659774Y-98196063D01*
X216490256Y-98082795D01*
X216301898Y-98004774D01*
X216101939Y-97965000D01*
X215898061Y-97965000D01*
X215698102Y-98004774D01*
X215552731Y-98064989D01*
X196502932Y-98064989D01*
X196465599Y-98061312D01*
X196428266Y-98064989D01*
X196316613Y-98075986D01*
X196173352Y-98119443D01*
X196041323Y-98190015D01*
X195925598Y-98284988D01*
X195901800Y-98313986D01*
X193488998Y-100726789D01*
X193460000Y-100750587D01*
X193436202Y-100779585D01*
X193436201Y-100779586D01*
X193365026Y-100866312D01*
X193294454Y-100998342D01*
X193250998Y-101141603D01*
X193236324Y-101290588D01*
X193240001Y-101327920D01*
X193240001Y-101941956D01*
X193085241Y-102045363D01*
X192885363Y-102245241D01*
X192728320Y-102480273D01*
X192620147Y-102741426D01*
X192565000Y-103018665D01*
X192565000Y-103301335D01*
X192620147Y-103578574D01*
X192728320Y-103839727D01*
X192885363Y-104074759D01*
X193085241Y-104274637D01*
X193320273Y-104431680D01*
X193581426Y-104539853D01*
X193858665Y-104595000D01*
X194141335Y-104595000D01*
X194418574Y-104539853D01*
X194679727Y-104431680D01*
X194914759Y-104274637D01*
X195114637Y-104074759D01*
X195271680Y-103839727D01*
X195379853Y-103578574D01*
X195435000Y-103301335D01*
X195435000Y-103018665D01*
X195379853Y-102741426D01*
X195271680Y-102480273D01*
X195114637Y-102245241D01*
X194914759Y-102045363D01*
X194760000Y-101941957D01*
X194760000Y-101605389D01*
X195515000Y-100850390D01*
X195514999Y-107240199D01*
X195024378Y-107730820D01*
X194717606Y-107669800D01*
X194402394Y-107669800D01*
X194093239Y-107731294D01*
X193802021Y-107851921D01*
X193539932Y-108027043D01*
X193317043Y-108249932D01*
X193233408Y-108375101D01*
X193130594Y-108339011D01*
X192199605Y-109270000D01*
X193130594Y-110200989D01*
X193233408Y-110164899D01*
X193317043Y-110290068D01*
X193539932Y-110512957D01*
X193802021Y-110688079D01*
X194093239Y-110808706D01*
X194402394Y-110870200D01*
X194717606Y-110870200D01*
X195026761Y-110808706D01*
X195317979Y-110688079D01*
X195580068Y-110512957D01*
X195802957Y-110290068D01*
X195830000Y-110249595D01*
X195857043Y-110290068D01*
X196079932Y-110512957D01*
X196342021Y-110688079D01*
X196633239Y-110808706D01*
X196942394Y-110870200D01*
X197257606Y-110870200D01*
X197566761Y-110808706D01*
X197857979Y-110688079D01*
X198120068Y-110512957D01*
X198342957Y-110290068D01*
X198370000Y-110249595D01*
X198397043Y-110290068D01*
X198619932Y-110512957D01*
X198882021Y-110688079D01*
X199173239Y-110808706D01*
X199482394Y-110870200D01*
X199797606Y-110870200D01*
X200106761Y-110808706D01*
X200397979Y-110688079D01*
X200660068Y-110512957D01*
X200882957Y-110290068D01*
X200910000Y-110249595D01*
X200937043Y-110290068D01*
X201159932Y-110512957D01*
X201422021Y-110688079D01*
X201713239Y-110808706D01*
X202022394Y-110870200D01*
X202337606Y-110870200D01*
X202646761Y-110808706D01*
X202937979Y-110688079D01*
X203200068Y-110512957D01*
X203422957Y-110290068D01*
X203450000Y-110249595D01*
X203477043Y-110290068D01*
X203699932Y-110512957D01*
X203962021Y-110688079D01*
X204253239Y-110808706D01*
X204562394Y-110870200D01*
X204877606Y-110870200D01*
X205186761Y-110808706D01*
X205477979Y-110688079D01*
X205740068Y-110512957D01*
X205962957Y-110290068D01*
X205990000Y-110249595D01*
X206017043Y-110290068D01*
X206239932Y-110512957D01*
X206502021Y-110688079D01*
X206793239Y-110808706D01*
X207102394Y-110870200D01*
X207417606Y-110870200D01*
X207726761Y-110808706D01*
X208017979Y-110688079D01*
X208280068Y-110512957D01*
X208502957Y-110290068D01*
X208530000Y-110249595D01*
X208557043Y-110290068D01*
X208779932Y-110512957D01*
X209042021Y-110688079D01*
X209333239Y-110808706D01*
X209642394Y-110870200D01*
X209957606Y-110870200D01*
X210266761Y-110808706D01*
X210557979Y-110688079D01*
X210820068Y-110512957D01*
X211042957Y-110290068D01*
X211070000Y-110249595D01*
X211097043Y-110290068D01*
X211319932Y-110512957D01*
X211582021Y-110688079D01*
X211873239Y-110808706D01*
X212182394Y-110870200D01*
X212497606Y-110870200D01*
X212806761Y-110808706D01*
X213097979Y-110688079D01*
X213360068Y-110512957D01*
X213582957Y-110290068D01*
X213610000Y-110249595D01*
X213637043Y-110290068D01*
X213859932Y-110512957D01*
X214122021Y-110688079D01*
X214413239Y-110808706D01*
X214722394Y-110870200D01*
X215037606Y-110870200D01*
X215346761Y-110808706D01*
X215637979Y-110688079D01*
X215900068Y-110512957D01*
X216122957Y-110290068D01*
X216150000Y-110249595D01*
X216177043Y-110290068D01*
X216399932Y-110512957D01*
X216662021Y-110688079D01*
X216953239Y-110808706D01*
X217262394Y-110870200D01*
X217577606Y-110870200D01*
X217886761Y-110808706D01*
X218177979Y-110688079D01*
X218440068Y-110512957D01*
X218662957Y-110290068D01*
X218690000Y-110249595D01*
X218717043Y-110290068D01*
X218939932Y-110512957D01*
X219202021Y-110688079D01*
X219493239Y-110808706D01*
X219802394Y-110870200D01*
X220117606Y-110870200D01*
X220426761Y-110808706D01*
X220717979Y-110688079D01*
X220980068Y-110512957D01*
X221202957Y-110290068D01*
X221230000Y-110249595D01*
X221257043Y-110290068D01*
X221479932Y-110512957D01*
X221742021Y-110688079D01*
X222033239Y-110808706D01*
X222342394Y-110870200D01*
X222657606Y-110870200D01*
X222966761Y-110808706D01*
X223257979Y-110688079D01*
X223520068Y-110512957D01*
X223742957Y-110290068D01*
X223770000Y-110249595D01*
X223797043Y-110290068D01*
X224019932Y-110512957D01*
X224282021Y-110688079D01*
X224573239Y-110808706D01*
X224882394Y-110870200D01*
X225197606Y-110870200D01*
X225506761Y-110808706D01*
X225797979Y-110688079D01*
X226060068Y-110512957D01*
X226282957Y-110290068D01*
X226458079Y-110027979D01*
X226578706Y-109736761D01*
X226640200Y-109427606D01*
X226640200Y-109112394D01*
X226578706Y-108803239D01*
X226458079Y-108512021D01*
X226282957Y-108249932D01*
X226060068Y-108027043D01*
X225797979Y-107851921D01*
X225506761Y-107731294D01*
X225197606Y-107669800D01*
X224882394Y-107669800D01*
X224573239Y-107731294D01*
X224282021Y-107851921D01*
X224019932Y-108027043D01*
X223797043Y-108249932D01*
X223770000Y-108290405D01*
X223742957Y-108249932D01*
X223520068Y-108027043D01*
X223257979Y-107851921D01*
X222966761Y-107731294D01*
X222657606Y-107669800D01*
X222342394Y-107669800D01*
X222033239Y-107731294D01*
X221742021Y-107851921D01*
X221479932Y-108027043D01*
X221257043Y-108249932D01*
X221230000Y-108290405D01*
X221202957Y-108249932D01*
X220980068Y-108027043D01*
X220717979Y-107851921D01*
X220426761Y-107731294D01*
X220117606Y-107669800D01*
X219802394Y-107669800D01*
X219493239Y-107731294D01*
X219202021Y-107851921D01*
X218939932Y-108027043D01*
X218717043Y-108249932D01*
X218690000Y-108290405D01*
X218662957Y-108249932D01*
X218440068Y-108027043D01*
X218177979Y-107851921D01*
X217886761Y-107731294D01*
X217577606Y-107669800D01*
X217262394Y-107669800D01*
X216953239Y-107731294D01*
X216662021Y-107851921D01*
X216399932Y-108027043D01*
X216177043Y-108249932D01*
X216150000Y-108290405D01*
X216122957Y-108249932D01*
X215900068Y-108027043D01*
X215637979Y-107851921D01*
X215346761Y-107731294D01*
X215037606Y-107669800D01*
X214722394Y-107669800D01*
X214413239Y-107731294D01*
X214190229Y-107823668D01*
X216115836Y-105898061D01*
X217965000Y-105898061D01*
X217965000Y-106101939D01*
X218004774Y-106301898D01*
X218082795Y-106490256D01*
X218196063Y-106659774D01*
X218340226Y-106803937D01*
X218509744Y-106917205D01*
X218698102Y-106995226D01*
X218898061Y-107035000D01*
X219101939Y-107035000D01*
X219301898Y-106995226D01*
X219490256Y-106917205D01*
X219659774Y-106803937D01*
X219703711Y-106760000D01*
X222296289Y-106760000D01*
X222340226Y-106803937D01*
X222509744Y-106917205D01*
X222698102Y-106995226D01*
X222898061Y-107035000D01*
X223101939Y-107035000D01*
X223301898Y-106995226D01*
X223490256Y-106917205D01*
X223659774Y-106803937D01*
X223803937Y-106659774D01*
X223917205Y-106490256D01*
X223995226Y-106301898D01*
X224035000Y-106101939D01*
X224035000Y-105898061D01*
X223995226Y-105698102D01*
X223917205Y-105509744D01*
X223803937Y-105340226D01*
X223659774Y-105196063D01*
X223490256Y-105082795D01*
X223301898Y-105004774D01*
X223101939Y-104965000D01*
X222898061Y-104965000D01*
X222698102Y-105004774D01*
X222509744Y-105082795D01*
X222340226Y-105196063D01*
X222296289Y-105240000D01*
X219703711Y-105240000D01*
X219659774Y-105196063D01*
X219490256Y-105082795D01*
X219301898Y-105004774D01*
X219101939Y-104965000D01*
X218898061Y-104965000D01*
X218698102Y-105004774D01*
X218509744Y-105082795D01*
X218340226Y-105196063D01*
X218196063Y-105340226D01*
X218082795Y-105509744D01*
X218004774Y-105698102D01*
X217965000Y-105898061D01*
X216115836Y-105898061D01*
X218504857Y-103509040D01*
X220608091Y-103509040D01*
X220702930Y-103773881D01*
X220847615Y-104015131D01*
X221036586Y-104223519D01*
X221262580Y-104391037D01*
X221516913Y-104511246D01*
X221650961Y-104551904D01*
X221873000Y-104429915D01*
X221873000Y-103287000D01*
X220729376Y-103287000D01*
X220608091Y-103509040D01*
X218504857Y-103509040D01*
X219218899Y-102794999D01*
X220613807Y-102794999D01*
X220608091Y-102810960D01*
X220729376Y-103033000D01*
X221873000Y-103033000D01*
X221873000Y-103013000D01*
X222127000Y-103013000D01*
X222127000Y-103033000D01*
X222147000Y-103033000D01*
X222147000Y-103287000D01*
X222127000Y-103287000D01*
X222127000Y-104429915D01*
X222349039Y-104551904D01*
X222483087Y-104511246D01*
X222737420Y-104391037D01*
X222963414Y-104223519D01*
X223152385Y-104015131D01*
X223262209Y-103832008D01*
X230240000Y-110809800D01*
X230240001Y-114765870D01*
X230236324Y-114803202D01*
X230250998Y-114952187D01*
X230271227Y-115018874D01*
X230182549Y-115107552D01*
X230029336Y-115336851D01*
X230000000Y-115407674D01*
X229970664Y-115336851D01*
X229817451Y-115107552D01*
X229622448Y-114912549D01*
X229393149Y-114759336D01*
X229138365Y-114653801D01*
X228867888Y-114600000D01*
X228592112Y-114600000D01*
X228321635Y-114653801D01*
X228066851Y-114759336D01*
X227837552Y-114912549D01*
X227642549Y-115107552D01*
X227489336Y-115336851D01*
X227460000Y-115407674D01*
X227430664Y-115336851D01*
X227277451Y-115107552D01*
X227082448Y-114912549D01*
X226853149Y-114759336D01*
X226598365Y-114653801D01*
X226327888Y-114600000D01*
X226052112Y-114600000D01*
X225781635Y-114653801D01*
X225526851Y-114759336D01*
X225297552Y-114912549D01*
X225102549Y-115107552D01*
X224949336Y-115336851D01*
X224843801Y-115591635D01*
X224790000Y-115862112D01*
X224790000Y-116137888D01*
X224843801Y-116408365D01*
X224949336Y-116663149D01*
X225102549Y-116892448D01*
X225297552Y-117087451D01*
X225526851Y-117240664D01*
X225781635Y-117346199D01*
X226052112Y-117400000D01*
X226327888Y-117400000D01*
X226598365Y-117346199D01*
X226853149Y-117240664D01*
X227082448Y-117087451D01*
X227277451Y-116892448D01*
X227430664Y-116663149D01*
X227460000Y-116592326D01*
X227489336Y-116663149D01*
X227642549Y-116892448D01*
X227837552Y-117087451D01*
X228066851Y-117240664D01*
X228321635Y-117346199D01*
X228592112Y-117400000D01*
X228867888Y-117400000D01*
X229138365Y-117346199D01*
X229393149Y-117240664D01*
X229622448Y-117087451D01*
X229817451Y-116892448D01*
X229970664Y-116663149D01*
X230000000Y-116592326D01*
X230029336Y-116663149D01*
X230182549Y-116892448D01*
X230377552Y-117087451D01*
X230606851Y-117240664D01*
X230861635Y-117346199D01*
X231132112Y-117400000D01*
X231407888Y-117400000D01*
X231678365Y-117346199D01*
X231933149Y-117240664D01*
X232162448Y-117087451D01*
X232282192Y-116967707D01*
X233021898Y-116967707D01*
X233089240Y-117208106D01*
X233338780Y-117325506D01*
X233606427Y-117391967D01*
X233881899Y-117404936D01*
X234154607Y-117363914D01*
X234414072Y-117270478D01*
X234530760Y-117208106D01*
X234598102Y-116967707D01*
X233810000Y-116179605D01*
X233021898Y-116967707D01*
X232282192Y-116967707D01*
X232357451Y-116892448D01*
X232510664Y-116663149D01*
X232537482Y-116598406D01*
X232539522Y-116604072D01*
X232601894Y-116720760D01*
X232842293Y-116788102D01*
X233630395Y-116000000D01*
X233989605Y-116000000D01*
X234777707Y-116788102D01*
X235018106Y-116720760D01*
X235135506Y-116471220D01*
X235201967Y-116203573D01*
X235214936Y-115928101D01*
X235173914Y-115655393D01*
X235080478Y-115395928D01*
X235018106Y-115279240D01*
X234777707Y-115211898D01*
X233989605Y-116000000D01*
X233630395Y-116000000D01*
X232842293Y-115211898D01*
X232601894Y-115279240D01*
X232540688Y-115409336D01*
X232510664Y-115336851D01*
X232357451Y-115107552D01*
X232282192Y-115032293D01*
X233021898Y-115032293D01*
X233810000Y-115820395D01*
X234598102Y-115032293D01*
X234543947Y-114838967D01*
X237365000Y-114838967D01*
X237365000Y-115161033D01*
X237427832Y-115476912D01*
X237551082Y-115774463D01*
X237730013Y-116042252D01*
X237957748Y-116269987D01*
X238225537Y-116448918D01*
X238523088Y-116572168D01*
X238838967Y-116635000D01*
X239161033Y-116635000D01*
X239476912Y-116572168D01*
X239774463Y-116448918D01*
X240042252Y-116269987D01*
X240269987Y-116042252D01*
X240448918Y-115774463D01*
X240572168Y-115476912D01*
X240635000Y-115161033D01*
X240635000Y-114838967D01*
X240572168Y-114523088D01*
X240448918Y-114225537D01*
X240269987Y-113957748D01*
X240042252Y-113730013D01*
X239774463Y-113551082D01*
X239476912Y-113427832D01*
X239161033Y-113365000D01*
X238838967Y-113365000D01*
X238523088Y-113427832D01*
X238225537Y-113551082D01*
X237957748Y-113730013D01*
X237730013Y-113957748D01*
X237551082Y-114225537D01*
X237427832Y-114523088D01*
X237365000Y-114838967D01*
X234543947Y-114838967D01*
X234530760Y-114791894D01*
X234281220Y-114674494D01*
X234013573Y-114608033D01*
X233738101Y-114595064D01*
X233465393Y-114636086D01*
X233205928Y-114729522D01*
X233089240Y-114791894D01*
X233021898Y-115032293D01*
X232282192Y-115032293D01*
X232162448Y-114912549D01*
X231978099Y-114789371D01*
X231975546Y-114780955D01*
X231904974Y-114648926D01*
X231810001Y-114533201D01*
X231780998Y-114509399D01*
X231760000Y-114488401D01*
X231760000Y-110532320D01*
X231763676Y-110494997D01*
X231760000Y-110457674D01*
X231760000Y-110457665D01*
X231749003Y-110346012D01*
X231705546Y-110202751D01*
X231634974Y-110070722D01*
X231540001Y-109954997D01*
X231511004Y-109931200D01*
X229458711Y-107878908D01*
X229497091Y-107904552D01*
X229685449Y-107982573D01*
X229885408Y-108022347D01*
X229963121Y-108022347D01*
X230095099Y-108092892D01*
X230238360Y-108136349D01*
X230350013Y-108147346D01*
X230350023Y-108147346D01*
X230387345Y-108151022D01*
X230424668Y-108147346D01*
X238575332Y-108147346D01*
X238612654Y-108151022D01*
X238649976Y-108147346D01*
X238649987Y-108147346D01*
X238761640Y-108136349D01*
X238904901Y-108092892D01*
X239036930Y-108022320D01*
X239152655Y-107927347D01*
X239176458Y-107898343D01*
X242009801Y-105065000D01*
X243611928Y-105065000D01*
X243624188Y-105189482D01*
X243660498Y-105309180D01*
X243719463Y-105419494D01*
X243798815Y-105516185D01*
X243895506Y-105595537D01*
X244005820Y-105654502D01*
X244125518Y-105690812D01*
X244250000Y-105703072D01*
X244714250Y-105700000D01*
X244873000Y-105541250D01*
X244873000Y-104667000D01*
X245127000Y-104667000D01*
X245127000Y-105541250D01*
X245285750Y-105700000D01*
X245750000Y-105703072D01*
X245874482Y-105690812D01*
X245994180Y-105654502D01*
X246104494Y-105595537D01*
X246201185Y-105516185D01*
X246280537Y-105419494D01*
X246339502Y-105309180D01*
X246375812Y-105189482D01*
X246388072Y-105065000D01*
X246385000Y-104825750D01*
X246226250Y-104667000D01*
X245127000Y-104667000D01*
X244873000Y-104667000D01*
X243773750Y-104667000D01*
X243615000Y-104825750D01*
X243611928Y-105065000D01*
X242009801Y-105065000D01*
X243626909Y-103447893D01*
X243631785Y-103497400D01*
X243695093Y-103706098D01*
X243660498Y-103770820D01*
X243624188Y-103890518D01*
X243611928Y-104015000D01*
X243615000Y-104254250D01*
X243773750Y-104413000D01*
X244546891Y-104413000D01*
X244547600Y-104413215D01*
X244718021Y-104430000D01*
X245281979Y-104430000D01*
X245452400Y-104413215D01*
X245453109Y-104413000D01*
X246226250Y-104413000D01*
X246385000Y-104254250D01*
X246388072Y-104015000D01*
X246375812Y-103890518D01*
X246339502Y-103770820D01*
X246304907Y-103706098D01*
X246368215Y-103497400D01*
X246390612Y-103270000D01*
X246368215Y-103042600D01*
X246301885Y-102823940D01*
X246200895Y-102635000D01*
X246301885Y-102446060D01*
X246368215Y-102227400D01*
X246390612Y-102000000D01*
X246381747Y-101909990D01*
X247112668Y-101909990D01*
X247149990Y-101913666D01*
X247187312Y-101909990D01*
X247187323Y-101909990D01*
X247298976Y-101898993D01*
X247425189Y-101860707D01*
X247509744Y-101917205D01*
X247698102Y-101995226D01*
X247898061Y-102035000D01*
X248101939Y-102035000D01*
X248240001Y-102007538D01*
X248240000Y-113545091D01*
X248225537Y-113551082D01*
X247957748Y-113730013D01*
X247730013Y-113957748D01*
X247551082Y-114225537D01*
X247427832Y-114523088D01*
X247365000Y-114838967D01*
X247365000Y-115161033D01*
X247427832Y-115476912D01*
X247551082Y-115774463D01*
X247730013Y-116042252D01*
X247957748Y-116269987D01*
X248225537Y-116448918D01*
X248523088Y-116572168D01*
X248838967Y-116635000D01*
X249161033Y-116635000D01*
X249476912Y-116572168D01*
X249774463Y-116448918D01*
X250042252Y-116269987D01*
X250269987Y-116042252D01*
X250448918Y-115774463D01*
X250572168Y-115476912D01*
X250635000Y-115161033D01*
X250635000Y-114838967D01*
X253365000Y-114838967D01*
X253365000Y-115161033D01*
X253427832Y-115476912D01*
X253551082Y-115774463D01*
X253730013Y-116042252D01*
X253957748Y-116269987D01*
X254225537Y-116448918D01*
X254523088Y-116572168D01*
X254838967Y-116635000D01*
X255161033Y-116635000D01*
X255476912Y-116572168D01*
X255774463Y-116448918D01*
X256042252Y-116269987D01*
X256176826Y-116135413D01*
X264044192Y-116135413D01*
X264139956Y-116399814D01*
X264429571Y-116540704D01*
X264741108Y-116622384D01*
X265062595Y-116641718D01*
X265381675Y-116597961D01*
X265686088Y-116492795D01*
X265860044Y-116399814D01*
X265955808Y-116135413D01*
X265000000Y-115179605D01*
X264044192Y-116135413D01*
X256176826Y-116135413D01*
X256269987Y-116042252D01*
X256448918Y-115774463D01*
X256572168Y-115476912D01*
X256635000Y-115161033D01*
X256635000Y-115062595D01*
X263358282Y-115062595D01*
X263402039Y-115381675D01*
X263507205Y-115686088D01*
X263600186Y-115860044D01*
X263864587Y-115955808D01*
X264820395Y-115000000D01*
X265179605Y-115000000D01*
X266135413Y-115955808D01*
X266399814Y-115860044D01*
X266438815Y-115779872D01*
X274765000Y-115779872D01*
X274765000Y-116220128D01*
X274850890Y-116651925D01*
X275019369Y-117058669D01*
X275263962Y-117424729D01*
X275575271Y-117736038D01*
X275941331Y-117980631D01*
X276348075Y-118149110D01*
X276779872Y-118235000D01*
X277220128Y-118235000D01*
X277651925Y-118149110D01*
X278058669Y-117980631D01*
X278424729Y-117736038D01*
X278736038Y-117424729D01*
X278980631Y-117058669D01*
X279149110Y-116651925D01*
X279235000Y-116220128D01*
X279235000Y-115779872D01*
X279149110Y-115348075D01*
X278980631Y-114941331D01*
X278736038Y-114575271D01*
X278424729Y-114263962D01*
X278058669Y-114019369D01*
X277651925Y-113850890D01*
X277220128Y-113765000D01*
X276779872Y-113765000D01*
X276348075Y-113850890D01*
X275941331Y-114019369D01*
X275575271Y-114263962D01*
X275263962Y-114575271D01*
X275019369Y-114941331D01*
X274850890Y-115348075D01*
X274765000Y-115779872D01*
X266438815Y-115779872D01*
X266540704Y-115570429D01*
X266622384Y-115258892D01*
X266641718Y-114937405D01*
X266597961Y-114618325D01*
X266492795Y-114313912D01*
X266399814Y-114139956D01*
X266135413Y-114044192D01*
X265179605Y-115000000D01*
X264820395Y-115000000D01*
X263864587Y-114044192D01*
X263600186Y-114139956D01*
X263459296Y-114429571D01*
X263377616Y-114741108D01*
X263358282Y-115062595D01*
X256635000Y-115062595D01*
X256635000Y-114838967D01*
X256572168Y-114523088D01*
X256448918Y-114225537D01*
X256269987Y-113957748D01*
X256176826Y-113864587D01*
X264044192Y-113864587D01*
X265000000Y-114820395D01*
X265955808Y-113864587D01*
X265860044Y-113600186D01*
X265570429Y-113459296D01*
X265258892Y-113377616D01*
X264937405Y-113358282D01*
X264618325Y-113402039D01*
X264313912Y-113507205D01*
X264139956Y-113600186D01*
X264044192Y-113864587D01*
X256176826Y-113864587D01*
X256042252Y-113730013D01*
X255774463Y-113551082D01*
X255476912Y-113427832D01*
X255161033Y-113365000D01*
X254838967Y-113365000D01*
X254523088Y-113427832D01*
X254225537Y-113551082D01*
X253957748Y-113730013D01*
X253730013Y-113957748D01*
X253551082Y-114225537D01*
X253427832Y-114523088D01*
X253365000Y-114838967D01*
X250635000Y-114838967D01*
X250572168Y-114523088D01*
X250448918Y-114225537D01*
X250269987Y-113957748D01*
X250042252Y-113730013D01*
X249774463Y-113551082D01*
X249760000Y-113545091D01*
X249760000Y-112022708D01*
X249885408Y-112047653D01*
X250089286Y-112047653D01*
X250289245Y-112007879D01*
X250477603Y-111929858D01*
X250647121Y-111816590D01*
X250691058Y-111772653D01*
X250950025Y-111772653D01*
X250987347Y-111776329D01*
X251024669Y-111772653D01*
X251024680Y-111772653D01*
X251136333Y-111761656D01*
X251279594Y-111718199D01*
X251411623Y-111647627D01*
X251527348Y-111552654D01*
X251551151Y-111523650D01*
X254508625Y-108566177D01*
X254523088Y-108572168D01*
X254838967Y-108635000D01*
X255161033Y-108635000D01*
X255476912Y-108572168D01*
X255774463Y-108448918D01*
X256042252Y-108269987D01*
X256269987Y-108042252D01*
X256448918Y-107774463D01*
X256572168Y-107476912D01*
X256635000Y-107161033D01*
X256635000Y-106838967D01*
X256572168Y-106523088D01*
X256448918Y-106225537D01*
X256269987Y-105957748D01*
X256042252Y-105730013D01*
X255774463Y-105551082D01*
X255476912Y-105427832D01*
X255161033Y-105365000D01*
X254838967Y-105365000D01*
X254523088Y-105427832D01*
X254225537Y-105551082D01*
X253957748Y-105730013D01*
X253730013Y-105957748D01*
X253551082Y-106225537D01*
X253427832Y-106523088D01*
X253365000Y-106838967D01*
X253365000Y-107161033D01*
X253427832Y-107476912D01*
X253433823Y-107491375D01*
X250681802Y-110243397D01*
X250647121Y-110208716D01*
X250477603Y-110095448D01*
X250289245Y-110017427D01*
X250089286Y-109977653D01*
X249885408Y-109977653D01*
X249760000Y-110002598D01*
X249760000Y-97834801D01*
X261236200Y-109311002D01*
X261259998Y-109340000D01*
X261375723Y-109434973D01*
X261507752Y-109505545D01*
X261651013Y-109549002D01*
X261762666Y-109559999D01*
X261762674Y-109559999D01*
X261799999Y-109563675D01*
X261837324Y-109559999D01*
X270162679Y-109559999D01*
X270200001Y-109563675D01*
X270237323Y-109559999D01*
X270237334Y-109559999D01*
X270348987Y-109549002D01*
X270492248Y-109505545D01*
X270624277Y-109434973D01*
X270669978Y-109397467D01*
X270858665Y-109435000D01*
X271141335Y-109435000D01*
X271418574Y-109379853D01*
X271679727Y-109271680D01*
X271914759Y-109114637D01*
X272114637Y-108914759D01*
X272271680Y-108679727D01*
X272379853Y-108418574D01*
X272435000Y-108141335D01*
X272435000Y-107858665D01*
X272379853Y-107581426D01*
X272271680Y-107320273D01*
X272114637Y-107085241D01*
X271914759Y-106885363D01*
X271714131Y-106751308D01*
X271741514Y-106736671D01*
X271813097Y-106492702D01*
X271000000Y-105679605D01*
X270186903Y-106492702D01*
X270258486Y-106736671D01*
X270287341Y-106750324D01*
X270085241Y-106885363D01*
X269885363Y-107085241D01*
X269728320Y-107320273D01*
X269620147Y-107581426D01*
X269565000Y-107858665D01*
X269565000Y-108039999D01*
X266219607Y-108039999D01*
X266135415Y-107955807D01*
X266399814Y-107860044D01*
X266540704Y-107570429D01*
X266622384Y-107258892D01*
X266641718Y-106937405D01*
X266597961Y-106618325D01*
X266492795Y-106313912D01*
X266399814Y-106139956D01*
X266135413Y-106044192D01*
X265179605Y-107000000D01*
X265193748Y-107014143D01*
X265014143Y-107193748D01*
X265000000Y-107179605D01*
X264985858Y-107193748D01*
X264806253Y-107014143D01*
X264820395Y-107000000D01*
X263864587Y-106044192D01*
X263600186Y-106139956D01*
X263459296Y-106429571D01*
X263377616Y-106741108D01*
X263358282Y-107062595D01*
X263402039Y-107381675D01*
X263507205Y-107686088D01*
X263600186Y-107860044D01*
X263864585Y-107955807D01*
X263780393Y-108039999D01*
X262114801Y-108039999D01*
X259939389Y-105864587D01*
X264044192Y-105864587D01*
X265000000Y-106820395D01*
X265955808Y-105864587D01*
X265860044Y-105600186D01*
X265799046Y-105570512D01*
X269559783Y-105570512D01*
X269601213Y-105850130D01*
X269696397Y-106116292D01*
X269763329Y-106241514D01*
X270007298Y-106313097D01*
X270820395Y-105500000D01*
X271179605Y-105500000D01*
X271992702Y-106313097D01*
X272236671Y-106241514D01*
X272357571Y-105986004D01*
X272426300Y-105711816D01*
X272440217Y-105429488D01*
X272398787Y-105149870D01*
X272303603Y-104883708D01*
X272236671Y-104758486D01*
X271992702Y-104686903D01*
X271179605Y-105500000D01*
X270820395Y-105500000D01*
X270007298Y-104686903D01*
X269763329Y-104758486D01*
X269642429Y-105013996D01*
X269573700Y-105288184D01*
X269559783Y-105570512D01*
X265799046Y-105570512D01*
X265570429Y-105459296D01*
X265258892Y-105377616D01*
X264937405Y-105358282D01*
X264618325Y-105402039D01*
X264313912Y-105507205D01*
X264139956Y-105600186D01*
X264044192Y-105864587D01*
X259939389Y-105864587D01*
X258582100Y-104507298D01*
X270186903Y-104507298D01*
X271000000Y-105320395D01*
X271813097Y-104507298D01*
X271741514Y-104263329D01*
X271486004Y-104142429D01*
X271211816Y-104073700D01*
X270929488Y-104059783D01*
X270649870Y-104101213D01*
X270383708Y-104196397D01*
X270258486Y-104263329D01*
X270186903Y-104507298D01*
X258582100Y-104507298D01*
X251903919Y-97829117D01*
X255425000Y-97829117D01*
X255425000Y-98170883D01*
X255491675Y-98506081D01*
X255622463Y-98821831D01*
X255812337Y-99105998D01*
X256054002Y-99347663D01*
X256338169Y-99537537D01*
X256653919Y-99668325D01*
X256989117Y-99735000D01*
X257330883Y-99735000D01*
X257666081Y-99668325D01*
X257981831Y-99537537D01*
X258265998Y-99347663D01*
X258507663Y-99105998D01*
X258697537Y-98821831D01*
X258723148Y-98760000D01*
X261445680Y-98760000D01*
X261551082Y-99014463D01*
X261730013Y-99282252D01*
X261957748Y-99509987D01*
X262225537Y-99688918D01*
X262523088Y-99812168D01*
X262838967Y-99875000D01*
X263161033Y-99875000D01*
X263476912Y-99812168D01*
X263774463Y-99688918D01*
X264042252Y-99509987D01*
X264269987Y-99282252D01*
X264448918Y-99014463D01*
X264572168Y-98716912D01*
X264635000Y-98401033D01*
X264635000Y-98078967D01*
X264587262Y-97838967D01*
X269365000Y-97838967D01*
X269365000Y-98161033D01*
X269427832Y-98476912D01*
X269551082Y-98774463D01*
X269730013Y-99042252D01*
X269957748Y-99269987D01*
X270225537Y-99448918D01*
X270523088Y-99572168D01*
X270838967Y-99635000D01*
X271161033Y-99635000D01*
X271476912Y-99572168D01*
X271774463Y-99448918D01*
X272042252Y-99269987D01*
X272269987Y-99042252D01*
X272448918Y-98774463D01*
X272572168Y-98476912D01*
X272635000Y-98161033D01*
X272635000Y-97838967D01*
X272572168Y-97523088D01*
X272448918Y-97225537D01*
X272269987Y-96957748D01*
X272042252Y-96730013D01*
X271774463Y-96551082D01*
X271476912Y-96427832D01*
X271161033Y-96365000D01*
X270838967Y-96365000D01*
X270523088Y-96427832D01*
X270225537Y-96551082D01*
X269957748Y-96730013D01*
X269730013Y-96957748D01*
X269551082Y-97225537D01*
X269427832Y-97523088D01*
X269365000Y-97838967D01*
X264587262Y-97838967D01*
X264572168Y-97763088D01*
X264448918Y-97465537D01*
X264269987Y-97197748D01*
X264042252Y-96970013D01*
X263774463Y-96791082D01*
X263476912Y-96667832D01*
X263161033Y-96605000D01*
X262838967Y-96605000D01*
X262523088Y-96667832D01*
X262225537Y-96791082D01*
X261957748Y-96970013D01*
X261730013Y-97197748D01*
X261701781Y-97240000D01*
X258723148Y-97240000D01*
X258697537Y-97178169D01*
X258507663Y-96894002D01*
X258265998Y-96652337D01*
X257981831Y-96462463D01*
X257666081Y-96331675D01*
X257330883Y-96265000D01*
X256989117Y-96265000D01*
X256653919Y-96331675D01*
X256338169Y-96462463D01*
X256054002Y-96652337D01*
X255812337Y-96894002D01*
X255622463Y-97178169D01*
X255491675Y-97493919D01*
X255425000Y-97829117D01*
X251903919Y-97829117D01*
X249035000Y-94960199D01*
X249035000Y-94898061D01*
X248995226Y-94698102D01*
X248917205Y-94509744D01*
X248803937Y-94340226D01*
X248732755Y-94269044D01*
X251241800Y-91760000D01*
X255596852Y-91760000D01*
X255622463Y-91821831D01*
X255812337Y-92105998D01*
X256054002Y-92347663D01*
X256338169Y-92537537D01*
X256653919Y-92668325D01*
X256989117Y-92735000D01*
X257330883Y-92735000D01*
X257666081Y-92668325D01*
X257981831Y-92537537D01*
X258265998Y-92347663D01*
X258507663Y-92105998D01*
X258697537Y-91821831D01*
X258828325Y-91506081D01*
X258895000Y-91170883D01*
X258895000Y-90829117D01*
X258828325Y-90493919D01*
X258697537Y-90178169D01*
X258507663Y-89894002D01*
X258265998Y-89652337D01*
X257981831Y-89462463D01*
X257666081Y-89331675D01*
X257330883Y-89265000D01*
X256989117Y-89265000D01*
X256653919Y-89331675D01*
X256592088Y-89357286D01*
X251063919Y-83829117D01*
X255425000Y-83829117D01*
X255425000Y-84170883D01*
X255491675Y-84506081D01*
X255622463Y-84821831D01*
X255812337Y-85105998D01*
X256054002Y-85347663D01*
X256338169Y-85537537D01*
X256653919Y-85668325D01*
X256989117Y-85735000D01*
X257330883Y-85735000D01*
X257666081Y-85668325D01*
X257981831Y-85537537D01*
X258265998Y-85347663D01*
X258507663Y-85105998D01*
X258697537Y-84821831D01*
X258828325Y-84506081D01*
X258895000Y-84170883D01*
X258895000Y-83829117D01*
X258828325Y-83493919D01*
X258697537Y-83178169D01*
X258507663Y-82894002D01*
X258452628Y-82838967D01*
X261365000Y-82838967D01*
X261365000Y-83161033D01*
X261427832Y-83476912D01*
X261551082Y-83774463D01*
X261730013Y-84042252D01*
X261957748Y-84269987D01*
X262225537Y-84448918D01*
X262523088Y-84572168D01*
X262838967Y-84635000D01*
X263161033Y-84635000D01*
X263476912Y-84572168D01*
X263774463Y-84448918D01*
X264042252Y-84269987D01*
X264269987Y-84042252D01*
X264448918Y-83774463D01*
X264572168Y-83476912D01*
X264635000Y-83161033D01*
X264635000Y-82838967D01*
X264587262Y-82598967D01*
X269365000Y-82598967D01*
X269365000Y-82921033D01*
X269427832Y-83236912D01*
X269551082Y-83534463D01*
X269730013Y-83802252D01*
X269957748Y-84029987D01*
X270225537Y-84208918D01*
X270523088Y-84332168D01*
X270838967Y-84395000D01*
X271161033Y-84395000D01*
X271476912Y-84332168D01*
X271774463Y-84208918D01*
X272042252Y-84029987D01*
X272269987Y-83802252D01*
X272284940Y-83779872D01*
X274765000Y-83779872D01*
X274765000Y-84220128D01*
X274850890Y-84651925D01*
X275019369Y-85058669D01*
X275263962Y-85424729D01*
X275575271Y-85736038D01*
X275941331Y-85980631D01*
X276348075Y-86149110D01*
X276779872Y-86235000D01*
X277220128Y-86235000D01*
X277651925Y-86149110D01*
X278058669Y-85980631D01*
X278424729Y-85736038D01*
X278736038Y-85424729D01*
X278980631Y-85058669D01*
X279149110Y-84651925D01*
X279235000Y-84220128D01*
X279235000Y-83779872D01*
X279149110Y-83348075D01*
X278980631Y-82941331D01*
X278736038Y-82575271D01*
X278424729Y-82263962D01*
X278058669Y-82019369D01*
X277651925Y-81850890D01*
X277220128Y-81765000D01*
X276779872Y-81765000D01*
X276348075Y-81850890D01*
X275941331Y-82019369D01*
X275575271Y-82263962D01*
X275263962Y-82575271D01*
X275019369Y-82941331D01*
X274850890Y-83348075D01*
X274765000Y-83779872D01*
X272284940Y-83779872D01*
X272448918Y-83534463D01*
X272572168Y-83236912D01*
X272635000Y-82921033D01*
X272635000Y-82598967D01*
X272572168Y-82283088D01*
X272448918Y-81985537D01*
X272269987Y-81717748D01*
X272042252Y-81490013D01*
X271774463Y-81311082D01*
X271476912Y-81187832D01*
X271161033Y-81125000D01*
X270838967Y-81125000D01*
X270523088Y-81187832D01*
X270225537Y-81311082D01*
X269957748Y-81490013D01*
X269730013Y-81717748D01*
X269551082Y-81985537D01*
X269427832Y-82283088D01*
X269365000Y-82598967D01*
X264587262Y-82598967D01*
X264572168Y-82523088D01*
X264448918Y-82225537D01*
X264269987Y-81957748D01*
X264042252Y-81730013D01*
X263774463Y-81551082D01*
X263476912Y-81427832D01*
X263161033Y-81365000D01*
X262838967Y-81365000D01*
X262523088Y-81427832D01*
X262225537Y-81551082D01*
X261957748Y-81730013D01*
X261730013Y-81957748D01*
X261551082Y-82225537D01*
X261427832Y-82523088D01*
X261365000Y-82838967D01*
X258452628Y-82838967D01*
X258265998Y-82652337D01*
X257981831Y-82462463D01*
X257666081Y-82331675D01*
X257330883Y-82265000D01*
X256989117Y-82265000D01*
X256653919Y-82331675D01*
X256338169Y-82462463D01*
X256054002Y-82652337D01*
X255812337Y-82894002D01*
X255622463Y-83178169D01*
X255491675Y-83493919D01*
X255425000Y-83829117D01*
X251063919Y-83829117D01*
X250723804Y-83489003D01*
X250700001Y-83459999D01*
X250584276Y-83365026D01*
X250452247Y-83294454D01*
X250308986Y-83250997D01*
X250197333Y-83240000D01*
X250197322Y-83240000D01*
X250160000Y-83236324D01*
X250122678Y-83240000D01*
X248738072Y-83240000D01*
X248738072Y-82900000D01*
X248725812Y-82775518D01*
X248689502Y-82655820D01*
X248630537Y-82545506D01*
X248551185Y-82448815D01*
X248454494Y-82369463D01*
X248344180Y-82310498D01*
X248224482Y-82274188D01*
X248100000Y-82261928D01*
X245900000Y-82261928D01*
X245775518Y-82274188D01*
X245655820Y-82310498D01*
X245545506Y-82369463D01*
X245448815Y-82448815D01*
X245369463Y-82545506D01*
X245310498Y-82655820D01*
X245274188Y-82775518D01*
X245261928Y-82900000D01*
X245261928Y-85100000D01*
X245274188Y-85224482D01*
X245310498Y-85344180D01*
X245369463Y-85454494D01*
X245448815Y-85551185D01*
X245545506Y-85630537D01*
X245655820Y-85689502D01*
X245775518Y-85725812D01*
X245900000Y-85738072D01*
X248100000Y-85738072D01*
X248224482Y-85725812D01*
X248344180Y-85689502D01*
X248454494Y-85630537D01*
X248551185Y-85551185D01*
X248630537Y-85454494D01*
X248689502Y-85344180D01*
X248725812Y-85224482D01*
X248738072Y-85100000D01*
X248738072Y-84760000D01*
X249845199Y-84760000D01*
X255325198Y-90240000D01*
X250964331Y-90240000D01*
X250926998Y-90236323D01*
X250889665Y-90240000D01*
X250778012Y-90250997D01*
X250634751Y-90294454D01*
X250502722Y-90365026D01*
X250386997Y-90459999D01*
X250363199Y-90488997D01*
X249185001Y-91667195D01*
X249185001Y-89677322D01*
X249188677Y-89639999D01*
X249185001Y-89602676D01*
X249185001Y-89602666D01*
X249174004Y-89491013D01*
X249130547Y-89347752D01*
X249059975Y-89215723D01*
X248965002Y-89099998D01*
X248936004Y-89076200D01*
X247348806Y-87489003D01*
X247325003Y-87459999D01*
X247209278Y-87365026D01*
X247077249Y-87294454D01*
X246933988Y-87250997D01*
X246822335Y-87240000D01*
X246822324Y-87240000D01*
X246785002Y-87236324D01*
X246747680Y-87240000D01*
X244054909Y-87240000D01*
X244048918Y-87225537D01*
X243869987Y-86957748D01*
X243642252Y-86730013D01*
X243374463Y-86551082D01*
X243076912Y-86427832D01*
X242761033Y-86365000D01*
X242438967Y-86365000D01*
X242123088Y-86427832D01*
X241825537Y-86551082D01*
X241557748Y-86730013D01*
X241330013Y-86957748D01*
X241151082Y-87225537D01*
X241027832Y-87523088D01*
X240965000Y-87838967D01*
X240965000Y-88161033D01*
X241027832Y-88476912D01*
X241151082Y-88774463D01*
X241330013Y-89042252D01*
X241557748Y-89269987D01*
X241825537Y-89448918D01*
X242123088Y-89572168D01*
X242438967Y-89635000D01*
X242761033Y-89635000D01*
X243076912Y-89572168D01*
X243374463Y-89448918D01*
X243642252Y-89269987D01*
X243869987Y-89042252D01*
X244048918Y-88774463D01*
X244054909Y-88760000D01*
X246470201Y-88760000D01*
X246972129Y-89261928D01*
X245900000Y-89261928D01*
X245775518Y-89274188D01*
X245655820Y-89310498D01*
X245545506Y-89369463D01*
X245448815Y-89448815D01*
X245369463Y-89545506D01*
X245310498Y-89655820D01*
X245274188Y-89775518D01*
X245261928Y-89900000D01*
X245261928Y-91663270D01*
X243638070Y-93287128D01*
X243526928Y-93265021D01*
X243323050Y-93265021D01*
X243123091Y-93304795D01*
X242934733Y-93382816D01*
X242765215Y-93496084D01*
X242621052Y-93640247D01*
X242507784Y-93809765D01*
X242505611Y-93815011D01*
X223181286Y-93815011D01*
X223271680Y-93679727D01*
X223379853Y-93418574D01*
X223435000Y-93141335D01*
X223435000Y-92858665D01*
X223379853Y-92581426D01*
X223271680Y-92320273D01*
X223114637Y-92085241D01*
X222914759Y-91885363D01*
X222679727Y-91728320D01*
X222418574Y-91620147D01*
X222141335Y-91565000D01*
X221858665Y-91565000D01*
X221581426Y-91620147D01*
X221320273Y-91728320D01*
X221085241Y-91885363D01*
X220885363Y-92085241D01*
X220728320Y-92320273D01*
X220620147Y-92581426D01*
X220565000Y-92858665D01*
X220565000Y-93141335D01*
X220620147Y-93418574D01*
X220728320Y-93679727D01*
X220818714Y-93815011D01*
X216181286Y-93815011D01*
X216271680Y-93679727D01*
X216379853Y-93418574D01*
X216435000Y-93141335D01*
X216435000Y-92858665D01*
X216379853Y-92581426D01*
X216271680Y-92320273D01*
X216114637Y-92085241D01*
X215914759Y-91885363D01*
X215679727Y-91728320D01*
X215418574Y-91620147D01*
X215141335Y-91565000D01*
X214858665Y-91565000D01*
X214581426Y-91620147D01*
X214320273Y-91728320D01*
X214085241Y-91885363D01*
X213885363Y-92085241D01*
X213728320Y-92320273D01*
X213620147Y-92581426D01*
X213565000Y-92858665D01*
X213565000Y-93141335D01*
X213601312Y-93323887D01*
X213560198Y-93365001D01*
X209390509Y-93365001D01*
X209435000Y-93141335D01*
X209435000Y-92858665D01*
X209379853Y-92581426D01*
X209271680Y-92320273D01*
X209114637Y-92085241D01*
X208914759Y-91885363D01*
X208679727Y-91728320D01*
X208418574Y-91620147D01*
X208141335Y-91565000D01*
X207858665Y-91565000D01*
X207676114Y-91601312D01*
X203563804Y-87489003D01*
X203540001Y-87459999D01*
X203424276Y-87365026D01*
X203292247Y-87294454D01*
X203148986Y-87250997D01*
X203037333Y-87240000D01*
X203037322Y-87240000D01*
X203000000Y-87236324D01*
X202962678Y-87240000D01*
X193703711Y-87240000D01*
X193659774Y-87196063D01*
X193490256Y-87082795D01*
X193301898Y-87004774D01*
X193277898Y-87000000D01*
X233361928Y-87000000D01*
X233361928Y-89000000D01*
X233374188Y-89124482D01*
X233410498Y-89244180D01*
X233469463Y-89354494D01*
X233548815Y-89451185D01*
X233645506Y-89530537D01*
X233755820Y-89589502D01*
X233875518Y-89625812D01*
X234000000Y-89638072D01*
X236000000Y-89638072D01*
X236124482Y-89625812D01*
X236244180Y-89589502D01*
X236354494Y-89530537D01*
X236451185Y-89451185D01*
X236530537Y-89354494D01*
X236589502Y-89244180D01*
X236625812Y-89124482D01*
X236638072Y-89000000D01*
X236638072Y-87000000D01*
X236625812Y-86875518D01*
X236589502Y-86755820D01*
X236530537Y-86645506D01*
X236451185Y-86548815D01*
X236354494Y-86469463D01*
X236244180Y-86410498D01*
X236124482Y-86374188D01*
X236000000Y-86361928D01*
X234000000Y-86361928D01*
X233875518Y-86374188D01*
X233755820Y-86410498D01*
X233645506Y-86469463D01*
X233548815Y-86548815D01*
X233469463Y-86645506D01*
X233410498Y-86755820D01*
X233374188Y-86875518D01*
X233361928Y-87000000D01*
X193277898Y-87000000D01*
X193101939Y-86965000D01*
X192898061Y-86965000D01*
X192698102Y-87004774D01*
X192509744Y-87082795D01*
X192340226Y-87196063D01*
X192196063Y-87340226D01*
X192082795Y-87509744D01*
X192004774Y-87698102D01*
X191965000Y-87898061D01*
X191965000Y-88101939D01*
X192004774Y-88301898D01*
X192082795Y-88490256D01*
X192196063Y-88659774D01*
X192340226Y-88803937D01*
X192509744Y-88917205D01*
X192698102Y-88995226D01*
X192898061Y-89035000D01*
X193101939Y-89035000D01*
X193301898Y-88995226D01*
X193490256Y-88917205D01*
X193659774Y-88803937D01*
X193703711Y-88760000D01*
X202685199Y-88760000D01*
X204165199Y-90240000D01*
X193703711Y-90240000D01*
X193659774Y-90196063D01*
X193490256Y-90082795D01*
X193301898Y-90004774D01*
X193101939Y-89965000D01*
X192898061Y-89965000D01*
X192698102Y-90004774D01*
X192509744Y-90082795D01*
X192340226Y-90196063D01*
X192196063Y-90340226D01*
X192082795Y-90509744D01*
X192004774Y-90698102D01*
X192000000Y-90722103D01*
X191995226Y-90698102D01*
X191917205Y-90509744D01*
X191803937Y-90340226D01*
X191659774Y-90196063D01*
X191490256Y-90082795D01*
X191301898Y-90004774D01*
X191101939Y-89965000D01*
X190898061Y-89965000D01*
X190698102Y-90004774D01*
X190509744Y-90082795D01*
X190340226Y-90196063D01*
X190196063Y-90340226D01*
X190082795Y-90509744D01*
X190004774Y-90698102D01*
X189965000Y-90898061D01*
X189965000Y-90960198D01*
X187678797Y-93246402D01*
X187649799Y-93270200D01*
X187626001Y-93299198D01*
X187626000Y-93299199D01*
X187554825Y-93385925D01*
X187484253Y-93517955D01*
X187477566Y-93540001D01*
X187447158Y-93640247D01*
X187440797Y-93661216D01*
X187426123Y-93810201D01*
X179127000Y-93810201D01*
X179127000Y-83779872D01*
X180765000Y-83779872D01*
X180765000Y-84220128D01*
X180850890Y-84651925D01*
X181019369Y-85058669D01*
X181263962Y-85424729D01*
X181575271Y-85736038D01*
X181941331Y-85980631D01*
X182348075Y-86149110D01*
X182779872Y-86235000D01*
X183220128Y-86235000D01*
X183651925Y-86149110D01*
X184058669Y-85980631D01*
X184424729Y-85736038D01*
X184736038Y-85424729D01*
X184980631Y-85058669D01*
X185149110Y-84651925D01*
X185235000Y-84220128D01*
X185235000Y-83779872D01*
X185220584Y-83707394D01*
X187879800Y-83707394D01*
X187879800Y-84022606D01*
X187941294Y-84331761D01*
X188061921Y-84622979D01*
X188237043Y-84885068D01*
X188459932Y-85107957D01*
X188722021Y-85283079D01*
X189013239Y-85403706D01*
X189322394Y-85465200D01*
X189637606Y-85465200D01*
X189946761Y-85403706D01*
X190237979Y-85283079D01*
X190500068Y-85107957D01*
X190632431Y-84975594D01*
X191089011Y-84975594D01*
X191180572Y-85236438D01*
X191464256Y-85373851D01*
X191769296Y-85453279D01*
X192083971Y-85471670D01*
X192396188Y-85428318D01*
X192693948Y-85324888D01*
X192859428Y-85236438D01*
X192950989Y-84975594D01*
X192020000Y-84044605D01*
X191089011Y-84975594D01*
X190632431Y-84975594D01*
X190722957Y-84885068D01*
X190806592Y-84759899D01*
X190909406Y-84795989D01*
X191840395Y-83865000D01*
X192199605Y-83865000D01*
X193130594Y-84795989D01*
X193233408Y-84759899D01*
X193317043Y-84885068D01*
X193539932Y-85107957D01*
X193802021Y-85283079D01*
X194093239Y-85403706D01*
X194402394Y-85465200D01*
X194717606Y-85465200D01*
X195026761Y-85403706D01*
X195317979Y-85283079D01*
X195580068Y-85107957D01*
X195802957Y-84885068D01*
X195830000Y-84844595D01*
X195857043Y-84885068D01*
X196079932Y-85107957D01*
X196342021Y-85283079D01*
X196633239Y-85403706D01*
X196942394Y-85465200D01*
X197257606Y-85465200D01*
X197566761Y-85403706D01*
X197857979Y-85283079D01*
X198120068Y-85107957D01*
X198342957Y-84885068D01*
X198370000Y-84844595D01*
X198397043Y-84885068D01*
X198619932Y-85107957D01*
X198882021Y-85283079D01*
X199173239Y-85403706D01*
X199482394Y-85465200D01*
X199797606Y-85465200D01*
X200106761Y-85403706D01*
X200397979Y-85283079D01*
X200660068Y-85107957D01*
X200882957Y-84885068D01*
X200910000Y-84844595D01*
X200937043Y-84885068D01*
X201159932Y-85107957D01*
X201422021Y-85283079D01*
X201713239Y-85403706D01*
X202022394Y-85465200D01*
X202337606Y-85465200D01*
X202646761Y-85403706D01*
X202937979Y-85283079D01*
X203200068Y-85107957D01*
X203422957Y-84885068D01*
X203450000Y-84844595D01*
X203477043Y-84885068D01*
X203699932Y-85107957D01*
X203962021Y-85283079D01*
X204253239Y-85403706D01*
X204562394Y-85465200D01*
X204877606Y-85465200D01*
X205186761Y-85403706D01*
X205477979Y-85283079D01*
X205740068Y-85107957D01*
X205962957Y-84885068D01*
X205990000Y-84844595D01*
X206017043Y-84885068D01*
X206239932Y-85107957D01*
X206502021Y-85283079D01*
X206793239Y-85403706D01*
X207102394Y-85465200D01*
X207417606Y-85465200D01*
X207726761Y-85403706D01*
X208017979Y-85283079D01*
X208280068Y-85107957D01*
X208502957Y-84885068D01*
X208530000Y-84844595D01*
X208557043Y-84885068D01*
X208779932Y-85107957D01*
X209042021Y-85283079D01*
X209333239Y-85403706D01*
X209642394Y-85465200D01*
X209957606Y-85465200D01*
X210266761Y-85403706D01*
X210557979Y-85283079D01*
X210820068Y-85107957D01*
X211042957Y-84885068D01*
X211070000Y-84844595D01*
X211097043Y-84885068D01*
X211319932Y-85107957D01*
X211582021Y-85283079D01*
X211873239Y-85403706D01*
X212182394Y-85465200D01*
X212497606Y-85465200D01*
X212806761Y-85403706D01*
X213097979Y-85283079D01*
X213360068Y-85107957D01*
X213582957Y-84885068D01*
X213610000Y-84844595D01*
X213637043Y-84885068D01*
X213859932Y-85107957D01*
X214122021Y-85283079D01*
X214413239Y-85403706D01*
X214722394Y-85465200D01*
X215037606Y-85465200D01*
X215346761Y-85403706D01*
X215637979Y-85283079D01*
X215900068Y-85107957D01*
X216122957Y-84885068D01*
X216150000Y-84844595D01*
X216177043Y-84885068D01*
X216399932Y-85107957D01*
X216662021Y-85283079D01*
X216953239Y-85403706D01*
X217262394Y-85465200D01*
X217577606Y-85465200D01*
X217886761Y-85403706D01*
X218177979Y-85283079D01*
X218440068Y-85107957D01*
X218662957Y-84885068D01*
X218690000Y-84844595D01*
X218717043Y-84885068D01*
X218939932Y-85107957D01*
X219202021Y-85283079D01*
X219493239Y-85403706D01*
X219802394Y-85465200D01*
X220117606Y-85465200D01*
X220426761Y-85403706D01*
X220717979Y-85283079D01*
X220980068Y-85107957D01*
X221202957Y-84885068D01*
X221230000Y-84844595D01*
X221257043Y-84885068D01*
X221479932Y-85107957D01*
X221742021Y-85283079D01*
X222033239Y-85403706D01*
X222342394Y-85465200D01*
X222657606Y-85465200D01*
X222966761Y-85403706D01*
X223257979Y-85283079D01*
X223520068Y-85107957D01*
X223742957Y-84885068D01*
X223770000Y-84844595D01*
X223797043Y-84885068D01*
X224019932Y-85107957D01*
X224282021Y-85283079D01*
X224573239Y-85403706D01*
X224882394Y-85465200D01*
X225197606Y-85465200D01*
X225506761Y-85403706D01*
X225797979Y-85283079D01*
X226060068Y-85107957D01*
X226282957Y-84885068D01*
X226458079Y-84622979D01*
X226578706Y-84331761D01*
X226640200Y-84022606D01*
X226640200Y-83707394D01*
X226578706Y-83398239D01*
X226458079Y-83107021D01*
X226282957Y-82844932D01*
X226060068Y-82622043D01*
X225797979Y-82446921D01*
X225506761Y-82326294D01*
X225197606Y-82264800D01*
X224882394Y-82264800D01*
X224573239Y-82326294D01*
X224282021Y-82446921D01*
X224019932Y-82622043D01*
X223797043Y-82844932D01*
X223770000Y-82885405D01*
X223742957Y-82844932D01*
X223520068Y-82622043D01*
X223257979Y-82446921D01*
X222966761Y-82326294D01*
X222657606Y-82264800D01*
X222342394Y-82264800D01*
X222033239Y-82326294D01*
X221742021Y-82446921D01*
X221479932Y-82622043D01*
X221257043Y-82844932D01*
X221230000Y-82885405D01*
X221202957Y-82844932D01*
X220980068Y-82622043D01*
X220717979Y-82446921D01*
X220426761Y-82326294D01*
X220117606Y-82264800D01*
X219802394Y-82264800D01*
X219493239Y-82326294D01*
X219202021Y-82446921D01*
X218939932Y-82622043D01*
X218717043Y-82844932D01*
X218690000Y-82885405D01*
X218662957Y-82844932D01*
X218440068Y-82622043D01*
X218177979Y-82446921D01*
X217886761Y-82326294D01*
X217577606Y-82264800D01*
X217262394Y-82264800D01*
X216953239Y-82326294D01*
X216662021Y-82446921D01*
X216399932Y-82622043D01*
X216177043Y-82844932D01*
X216150000Y-82885405D01*
X216122957Y-82844932D01*
X215900068Y-82622043D01*
X215637979Y-82446921D01*
X215346761Y-82326294D01*
X215037606Y-82264800D01*
X214722394Y-82264800D01*
X214413239Y-82326294D01*
X214122021Y-82446921D01*
X213859932Y-82622043D01*
X213637043Y-82844932D01*
X213610000Y-82885405D01*
X213582957Y-82844932D01*
X213360068Y-82622043D01*
X213097979Y-82446921D01*
X212806761Y-82326294D01*
X212497606Y-82264800D01*
X212182394Y-82264800D01*
X211873239Y-82326294D01*
X211582021Y-82446921D01*
X211319932Y-82622043D01*
X211097043Y-82844932D01*
X211070000Y-82885405D01*
X211042957Y-82844932D01*
X210820068Y-82622043D01*
X210557979Y-82446921D01*
X210266761Y-82326294D01*
X209957606Y-82264800D01*
X209642394Y-82264800D01*
X209333239Y-82326294D01*
X209042021Y-82446921D01*
X208779932Y-82622043D01*
X208557043Y-82844932D01*
X208530000Y-82885405D01*
X208502957Y-82844932D01*
X208280068Y-82622043D01*
X208017979Y-82446921D01*
X207726761Y-82326294D01*
X207417606Y-82264800D01*
X207102394Y-82264800D01*
X206793239Y-82326294D01*
X206502021Y-82446921D01*
X206239932Y-82622043D01*
X206017043Y-82844932D01*
X205990000Y-82885405D01*
X205962957Y-82844932D01*
X205740068Y-82622043D01*
X205477979Y-82446921D01*
X205186761Y-82326294D01*
X204877606Y-82264800D01*
X204562394Y-82264800D01*
X204253239Y-82326294D01*
X203962021Y-82446921D01*
X203699932Y-82622043D01*
X203477043Y-82844932D01*
X203450000Y-82885405D01*
X203422957Y-82844932D01*
X203200068Y-82622043D01*
X202937979Y-82446921D01*
X202646761Y-82326294D01*
X202337606Y-82264800D01*
X202022394Y-82264800D01*
X201713239Y-82326294D01*
X201422021Y-82446921D01*
X201159932Y-82622043D01*
X200937043Y-82844932D01*
X200910000Y-82885405D01*
X200882957Y-82844932D01*
X200660068Y-82622043D01*
X200397979Y-82446921D01*
X200106761Y-82326294D01*
X199797606Y-82264800D01*
X199482394Y-82264800D01*
X199173239Y-82326294D01*
X198882021Y-82446921D01*
X198619932Y-82622043D01*
X198397043Y-82844932D01*
X198370000Y-82885405D01*
X198342957Y-82844932D01*
X198120068Y-82622043D01*
X197857979Y-82446921D01*
X197566761Y-82326294D01*
X197257606Y-82264800D01*
X196942394Y-82264800D01*
X196633239Y-82326294D01*
X196342021Y-82446921D01*
X196079932Y-82622043D01*
X195857043Y-82844932D01*
X195830000Y-82885405D01*
X195802957Y-82844932D01*
X195580068Y-82622043D01*
X195317979Y-82446921D01*
X195026761Y-82326294D01*
X194717606Y-82264800D01*
X194402394Y-82264800D01*
X194093239Y-82326294D01*
X193802021Y-82446921D01*
X193539932Y-82622043D01*
X193317043Y-82844932D01*
X193233408Y-82970101D01*
X193130594Y-82934011D01*
X192199605Y-83865000D01*
X191840395Y-83865000D01*
X190909406Y-82934011D01*
X190806592Y-82970101D01*
X190722957Y-82844932D01*
X190632431Y-82754406D01*
X191089011Y-82754406D01*
X192020000Y-83685395D01*
X192950989Y-82754406D01*
X192859428Y-82493562D01*
X192575744Y-82356149D01*
X192270704Y-82276721D01*
X191956029Y-82258330D01*
X191643812Y-82301682D01*
X191346052Y-82405112D01*
X191180572Y-82493562D01*
X191089011Y-82754406D01*
X190632431Y-82754406D01*
X190500068Y-82622043D01*
X190237979Y-82446921D01*
X189946761Y-82326294D01*
X189637606Y-82264800D01*
X189322394Y-82264800D01*
X189013239Y-82326294D01*
X188722021Y-82446921D01*
X188459932Y-82622043D01*
X188237043Y-82844932D01*
X188061921Y-83107021D01*
X187941294Y-83398239D01*
X187879800Y-83707394D01*
X185220584Y-83707394D01*
X185149110Y-83348075D01*
X184980631Y-82941331D01*
X184736038Y-82575271D01*
X184424729Y-82263962D01*
X184058669Y-82019369D01*
X183651925Y-81850890D01*
X183220128Y-81765000D01*
X182779872Y-81765000D01*
X182348075Y-81850890D01*
X181941331Y-82019369D01*
X181575271Y-82263962D01*
X181263962Y-82575271D01*
X181019369Y-82941331D01*
X180850890Y-83348075D01*
X180765000Y-83779872D01*
X179127000Y-83779872D01*
X179127000Y-79127000D01*
X280873000Y-79127000D01*
X280873000Y-135873000D01*
G37*
%TD.AperFunction*%
D29*
X246514999Y-95385323D02*
X246514999Y-95385333D01*
X246525996Y-95496986D01*
X246553853Y-95588820D01*
X246569453Y-95640247D01*
X246640025Y-95772277D01*
X246650484Y-95785021D01*
X246734998Y-95888002D01*
X246764002Y-95911805D01*
X247114125Y-96261928D01*
X245900000Y-96261928D01*
X245775518Y-96274188D01*
X245655820Y-96310498D01*
X245545506Y-96369463D01*
X245448815Y-96448815D01*
X245369463Y-96545506D01*
X245310498Y-96655820D01*
X245274188Y-96775518D01*
X245261928Y-96900000D01*
X245261928Y-99100000D01*
X245274188Y-99224482D01*
X245310498Y-99344180D01*
X245369463Y-99454494D01*
X245448815Y-99551185D01*
X245545506Y-99630537D01*
X245655820Y-99689502D01*
X245775518Y-99725812D01*
X245900000Y-99738072D01*
X248100000Y-99738072D01*
X248224482Y-99725812D01*
X248240001Y-99721104D01*
X248240001Y-99992462D01*
X248101939Y-99965000D01*
X247898061Y-99965000D01*
X247698102Y-100004774D01*
X247509744Y-100082795D01*
X247340226Y-100196063D01*
X247299963Y-100236326D01*
X247262657Y-100240000D01*
X247262647Y-100240000D01*
X247150994Y-100250997D01*
X247007733Y-100294454D01*
X246875704Y-100365026D01*
X246845285Y-100389990D01*
X239347332Y-100389990D01*
X239310009Y-100386314D01*
X239272686Y-100389990D01*
X239272677Y-100389990D01*
X239161024Y-100400987D01*
X239017763Y-100444444D01*
X238885734Y-100515016D01*
X238885732Y-100515017D01*
X238885733Y-100515017D01*
X238799006Y-100586191D01*
X238799002Y-100586195D01*
X238770009Y-100609989D01*
X238746215Y-100638982D01*
X238535000Y-100850197D01*
X238535000Y-100792998D01*
X238370993Y-100792998D01*
X238491041Y-100555259D01*
X238391234Y-100271380D01*
X238237962Y-100012427D01*
X238037116Y-99788351D01*
X237796414Y-99607764D01*
X237525107Y-99477606D01*
X237364740Y-99428964D01*
X237127000Y-99549622D01*
X237127000Y-100793000D01*
X237147000Y-100793000D01*
X237147000Y-101047000D01*
X237127000Y-101047000D01*
X237127000Y-101067000D01*
X236873000Y-101067000D01*
X236873000Y-101047000D01*
X235629008Y-101047000D01*
X235508959Y-101284741D01*
X235608766Y-101568620D01*
X235762038Y-101827573D01*
X235962884Y-102051649D01*
X236142802Y-102186633D01*
X236021495Y-102267688D01*
X235807688Y-102481495D01*
X235639701Y-102732905D01*
X235523989Y-103012257D01*
X235465000Y-103308816D01*
X235465000Y-103611184D01*
X235523989Y-103907743D01*
X235639701Y-104187095D01*
X235807688Y-104438505D01*
X235874127Y-104504944D01*
X235855820Y-104510498D01*
X235745506Y-104569463D01*
X235648815Y-104648815D01*
X235569463Y-104745506D01*
X235510498Y-104855820D01*
X235474188Y-104975518D01*
X235461928Y-105100000D01*
X235461928Y-105240000D01*
X234314802Y-105240000D01*
X233035000Y-103960199D01*
X233035000Y-103898061D01*
X232995226Y-103698102D01*
X232917205Y-103509744D01*
X232803937Y-103340226D01*
X232659774Y-103196063D01*
X232490256Y-103082795D01*
X232301898Y-103004774D01*
X232101939Y-102965000D01*
X231898061Y-102965000D01*
X231698102Y-103004774D01*
X231509744Y-103082795D01*
X231340226Y-103196063D01*
X231196063Y-103340226D01*
X231082795Y-103509744D01*
X231004774Y-103698102D01*
X230965000Y-103898061D01*
X230965000Y-104101939D01*
X231004774Y-104301898D01*
X231082795Y-104490256D01*
X231196063Y-104659774D01*
X231340226Y-104803937D01*
X231509744Y-104917205D01*
X231698102Y-104995226D01*
X231898061Y-105035000D01*
X231960199Y-105035000D01*
X233436201Y-106511003D01*
X233459999Y-106540001D01*
X233488997Y-106563799D01*
X233566428Y-106627346D01*
X230958506Y-106627346D01*
X230904552Y-106497091D01*
X230791284Y-106327573D01*
X230647121Y-106183410D01*
X230477603Y-106070142D01*
X230289245Y-105992121D01*
X230089286Y-105952347D01*
X229885408Y-105952347D01*
X229685449Y-105992121D01*
X229497091Y-106070142D01*
X229327573Y-106183410D01*
X229183410Y-106327573D01*
X229070142Y-106497091D01*
X228992121Y-106685449D01*
X228952347Y-106885408D01*
X228952347Y-107089286D01*
X228992121Y-107289245D01*
X229070142Y-107477603D01*
X229095786Y-107515983D01*
X223103805Y-101524002D01*
X223080002Y-101494998D01*
X222964277Y-101400025D01*
X222832248Y-101329453D01*
X222688987Y-101285996D01*
X222577334Y-101274999D01*
X222577323Y-101274999D01*
X222540001Y-101271323D01*
X222502679Y-101274999D01*
X218941422Y-101274999D01*
X218904097Y-101271323D01*
X218866772Y-101274999D01*
X218866764Y-101274999D01*
X218755111Y-101285996D01*
X218611850Y-101329453D01*
X218479821Y-101400025D01*
X218364096Y-101494998D01*
X218340298Y-101523996D01*
X216403227Y-103461068D01*
X216435000Y-103301335D01*
X216435000Y-103018665D01*
X216398688Y-102836113D01*
X218679542Y-100555259D01*
X235508959Y-100555259D01*
X235629008Y-100793000D01*
X236873000Y-100793000D01*
X236873000Y-99549622D01*
X236635260Y-99428964D01*
X236474893Y-99477606D01*
X236203586Y-99607764D01*
X235962884Y-99788351D01*
X235762038Y-100012427D01*
X235608766Y-100271380D01*
X235508959Y-100555259D01*
X218679542Y-100555259D01*
X222224101Y-97010701D01*
X222301898Y-96995226D01*
X222490256Y-96917205D01*
X222659774Y-96803937D01*
X222803937Y-96659774D01*
X222917205Y-96490256D01*
X222995226Y-96301898D01*
X223035000Y-96101939D01*
X223035000Y-95898061D01*
X223012515Y-95785021D01*
X245722659Y-95785021D01*
X245759981Y-95788697D01*
X245797303Y-95785021D01*
X245797314Y-95785021D01*
X245908967Y-95774024D01*
X246052228Y-95730567D01*
X246184257Y-95659995D01*
X246299982Y-95565022D01*
X246323785Y-95536018D01*
X246511366Y-95348437D01*
X246514999Y-95385323D01*
%TA.AperFunction,Conductor*%
D30*
G36*
X246514999Y-95385323D02*
G01*
X246514999Y-95385333D01*
X246525996Y-95496986D01*
X246553853Y-95588820D01*
X246569453Y-95640247D01*
X246640025Y-95772277D01*
X246650484Y-95785021D01*
X246734998Y-95888002D01*
X246764002Y-95911805D01*
X247114125Y-96261928D01*
X245900000Y-96261928D01*
X245775518Y-96274188D01*
X245655820Y-96310498D01*
X245545506Y-96369463D01*
X245448815Y-96448815D01*
X245369463Y-96545506D01*
X245310498Y-96655820D01*
X245274188Y-96775518D01*
X245261928Y-96900000D01*
X245261928Y-99100000D01*
X245274188Y-99224482D01*
X245310498Y-99344180D01*
X245369463Y-99454494D01*
X245448815Y-99551185D01*
X245545506Y-99630537D01*
X245655820Y-99689502D01*
X245775518Y-99725812D01*
X245900000Y-99738072D01*
X248100000Y-99738072D01*
X248224482Y-99725812D01*
X248240001Y-99721104D01*
X248240001Y-99992462D01*
X248101939Y-99965000D01*
X247898061Y-99965000D01*
X247698102Y-100004774D01*
X247509744Y-100082795D01*
X247340226Y-100196063D01*
X247299963Y-100236326D01*
X247262657Y-100240000D01*
X247262647Y-100240000D01*
X247150994Y-100250997D01*
X247007733Y-100294454D01*
X246875704Y-100365026D01*
X246845285Y-100389990D01*
X239347332Y-100389990D01*
X239310009Y-100386314D01*
X239272686Y-100389990D01*
X239272677Y-100389990D01*
X239161024Y-100400987D01*
X239017763Y-100444444D01*
X238885734Y-100515016D01*
X238885732Y-100515017D01*
X238885733Y-100515017D01*
X238799006Y-100586191D01*
X238799002Y-100586195D01*
X238770009Y-100609989D01*
X238746215Y-100638982D01*
X238535000Y-100850197D01*
X238535000Y-100792998D01*
X238370993Y-100792998D01*
X238491041Y-100555259D01*
X238391234Y-100271380D01*
X238237962Y-100012427D01*
X238037116Y-99788351D01*
X237796414Y-99607764D01*
X237525107Y-99477606D01*
X237364740Y-99428964D01*
X237127000Y-99549622D01*
X237127000Y-100793000D01*
X237147000Y-100793000D01*
X237147000Y-101047000D01*
X237127000Y-101047000D01*
X237127000Y-101067000D01*
X236873000Y-101067000D01*
X236873000Y-101047000D01*
X235629008Y-101047000D01*
X235508959Y-101284741D01*
X235608766Y-101568620D01*
X235762038Y-101827573D01*
X235962884Y-102051649D01*
X236142802Y-102186633D01*
X236021495Y-102267688D01*
X235807688Y-102481495D01*
X235639701Y-102732905D01*
X235523989Y-103012257D01*
X235465000Y-103308816D01*
X235465000Y-103611184D01*
X235523989Y-103907743D01*
X235639701Y-104187095D01*
X235807688Y-104438505D01*
X235874127Y-104504944D01*
X235855820Y-104510498D01*
X235745506Y-104569463D01*
X235648815Y-104648815D01*
X235569463Y-104745506D01*
X235510498Y-104855820D01*
X235474188Y-104975518D01*
X235461928Y-105100000D01*
X235461928Y-105240000D01*
X234314802Y-105240000D01*
X233035000Y-103960199D01*
X233035000Y-103898061D01*
X232995226Y-103698102D01*
X232917205Y-103509744D01*
X232803937Y-103340226D01*
X232659774Y-103196063D01*
X232490256Y-103082795D01*
X232301898Y-103004774D01*
X232101939Y-102965000D01*
X231898061Y-102965000D01*
X231698102Y-103004774D01*
X231509744Y-103082795D01*
X231340226Y-103196063D01*
X231196063Y-103340226D01*
X231082795Y-103509744D01*
X231004774Y-103698102D01*
X230965000Y-103898061D01*
X230965000Y-104101939D01*
X231004774Y-104301898D01*
X231082795Y-104490256D01*
X231196063Y-104659774D01*
X231340226Y-104803937D01*
X231509744Y-104917205D01*
X231698102Y-104995226D01*
X231898061Y-105035000D01*
X231960199Y-105035000D01*
X233436201Y-106511003D01*
X233459999Y-106540001D01*
X233488997Y-106563799D01*
X233566428Y-106627346D01*
X230958506Y-106627346D01*
X230904552Y-106497091D01*
X230791284Y-106327573D01*
X230647121Y-106183410D01*
X230477603Y-106070142D01*
X230289245Y-105992121D01*
X230089286Y-105952347D01*
X229885408Y-105952347D01*
X229685449Y-105992121D01*
X229497091Y-106070142D01*
X229327573Y-106183410D01*
X229183410Y-106327573D01*
X229070142Y-106497091D01*
X228992121Y-106685449D01*
X228952347Y-106885408D01*
X228952347Y-107089286D01*
X228992121Y-107289245D01*
X229070142Y-107477603D01*
X229095786Y-107515983D01*
X223103805Y-101524002D01*
X223080002Y-101494998D01*
X222964277Y-101400025D01*
X222832248Y-101329453D01*
X222688987Y-101285996D01*
X222577334Y-101274999D01*
X222577323Y-101274999D01*
X222540001Y-101271323D01*
X222502679Y-101274999D01*
X218941422Y-101274999D01*
X218904097Y-101271323D01*
X218866772Y-101274999D01*
X218866764Y-101274999D01*
X218755111Y-101285996D01*
X218611850Y-101329453D01*
X218479821Y-101400025D01*
X218364096Y-101494998D01*
X218340298Y-101523996D01*
X216403227Y-103461068D01*
X216435000Y-103301335D01*
X216435000Y-103018665D01*
X216398688Y-102836113D01*
X218679542Y-100555259D01*
X235508959Y-100555259D01*
X235629008Y-100793000D01*
X236873000Y-100793000D01*
X236873000Y-99549622D01*
X236635260Y-99428964D01*
X236474893Y-99477606D01*
X236203586Y-99607764D01*
X235962884Y-99788351D01*
X235762038Y-100012427D01*
X235608766Y-100271380D01*
X235508959Y-100555259D01*
X218679542Y-100555259D01*
X222224101Y-97010701D01*
X222301898Y-96995226D01*
X222490256Y-96917205D01*
X222659774Y-96803937D01*
X222803937Y-96659774D01*
X222917205Y-96490256D01*
X222995226Y-96301898D01*
X223035000Y-96101939D01*
X223035000Y-95898061D01*
X223012515Y-95785021D01*
X245722659Y-95785021D01*
X245759981Y-95788697D01*
X245797303Y-95785021D01*
X245797314Y-95785021D01*
X245908967Y-95774024D01*
X246052228Y-95730567D01*
X246184257Y-95659995D01*
X246299982Y-95565022D01*
X246323785Y-95536018D01*
X246511366Y-95348437D01*
X246514999Y-95385323D01*
G37*
%TD.AperFunction*%
%TD*%
M02*
