%TF.GenerationSoftware,KiCad,Pcbnew,(5.1.9)-1*%
%TF.CreationDate,2021-03-06T13:39:37+06:00*%
%TF.ProjectId,Geiger,47656967-6572-42e6-9b69-6361645f7063,v01*%
%TF.SameCoordinates,Original*%
%TF.FileFunction,Soldermask,Top*%
%TF.FilePolarity,Negative*%
%FSLAX46Y46*%
G04 Gerber Fmt 4.6, Leading zero omitted, Abs format (unit mm)*
G04 Created by KiCad (PCBNEW (5.1.9)-1) date 2021-03-06 13:39:37*
%MOMM*%
%LPD*%
G01*
G04 APERTURE LIST*
%ADD10C,3.200000*%
%ADD11R,2.000000X2.000000*%
%ADD12C,2.000000*%
%ADD13C,1.600000*%
%ADD14R,1.800000X1.800000*%
%ADD15C,1.800000*%
%ADD16R,2.200000X2.200000*%
%ADD17O,2.200000X2.200000*%
%ADD18O,1.700000X2.000000*%
%ADD19O,2.000000X2.000000*%
%ADD20O,1.800000X1.800000*%
%ADD21O,1.500000X1.050000*%
%ADD22R,1.500000X1.050000*%
%ADD23O,1.600000X1.600000*%
%ADD24C,1.530000*%
%ADD25C,1.930400*%
G04 APERTURE END LIST*
D10*
%TO.C,REF\u002A\u002A*%
X183000000Y-84000000D03*
%TD*%
%TO.C,REF\u002A\u002A*%
X277000000Y-84000000D03*
%TD*%
%TO.C,REF\u002A\u002A*%
X277000000Y-116000000D03*
%TD*%
%TO.C,REF\u002A\u002A*%
X183000000Y-116000000D03*
%TD*%
D11*
%TO.C,BZ1*%
X235000000Y-88000000D03*
D12*
X242600000Y-88000000D03*
%TD*%
%TO.C,C1*%
X265000000Y-115000000D03*
X255000000Y-115000000D03*
%TD*%
%TO.C,C2*%
X239000000Y-115000000D03*
X249000000Y-115000000D03*
%TD*%
%TO.C,C3*%
X255000000Y-107000000D03*
X265000000Y-107000000D03*
%TD*%
D13*
%TO.C,C4*%
X271000000Y-108000000D03*
X271000000Y-105500000D03*
%TD*%
D14*
%TO.C,D1*%
X200000000Y-115000000D03*
D15*
X202540000Y-115000000D03*
X205080000Y-115000000D03*
%TD*%
D16*
%TO.C,D2*%
X247000000Y-98000000D03*
D17*
X257160000Y-98000000D03*
%TD*%
D16*
%TO.C,D3*%
X247000000Y-84000000D03*
D17*
X257160000Y-84000000D03*
%TD*%
%TO.C,D4*%
X257160000Y-91000000D03*
D16*
X247000000Y-91000000D03*
%TD*%
%TO.C,J1*%
G36*
G01*
X190150000Y-115750000D02*
X190150000Y-114250000D01*
G75*
G02*
X190400000Y-114000000I250000J0D01*
G01*
X191600000Y-114000000D01*
G75*
G02*
X191850000Y-114250000I0J-250000D01*
G01*
X191850000Y-115750000D01*
G75*
G02*
X191600000Y-116000000I-250000J0D01*
G01*
X190400000Y-116000000D01*
G75*
G02*
X190150000Y-115750000I0J250000D01*
G01*
G37*
D18*
X193500000Y-115000000D03*
%TD*%
D19*
%TO.C,L1*%
X271000000Y-82760000D03*
D12*
X271000000Y-98000000D03*
%TD*%
%TO.C,L2*%
X263000000Y-98240000D03*
D19*
X263000000Y-83000000D03*
%TD*%
D14*
%TO.C,Q1*%
X237000000Y-106000000D03*
D20*
X237000000Y-103460000D03*
X237000000Y-100920000D03*
%TD*%
D21*
%TO.C,Q2*%
X245000000Y-103270000D03*
X245000000Y-102000000D03*
D22*
X245000000Y-104540000D03*
%TD*%
D13*
%TO.C,R1*%
X194000000Y-93000000D03*
D23*
X194000000Y-103160000D03*
%TD*%
D13*
%TO.C,R2*%
X201000000Y-93000000D03*
D23*
X201000000Y-103160000D03*
%TD*%
%TO.C,R3*%
X215000000Y-103160000D03*
D13*
X215000000Y-93000000D03*
%TD*%
D23*
%TO.C,R4*%
X222000000Y-103160000D03*
D13*
X222000000Y-93000000D03*
%TD*%
%TO.C,R5*%
X208000000Y-93000000D03*
D23*
X208000000Y-103160000D03*
%TD*%
D24*
%TO.C,U1*%
X228730000Y-116000000D03*
X231270000Y-116000000D03*
X233810000Y-116000000D03*
X226190000Y-116000000D03*
%TD*%
D25*
%TO.C,U2*%
X189480000Y-109270000D03*
X192020000Y-109270000D03*
X194560000Y-109270000D03*
X197100000Y-109270000D03*
X199640000Y-109270000D03*
X202180000Y-109270000D03*
X204720000Y-109270000D03*
X207260000Y-109270000D03*
X209800000Y-109270000D03*
X212340000Y-109270000D03*
X214880000Y-109270000D03*
X217420000Y-109270000D03*
X219960000Y-109270000D03*
X222500000Y-109270000D03*
X225040000Y-109270000D03*
X189480000Y-83865000D03*
X192020000Y-83865000D03*
X194560000Y-83865000D03*
X197100000Y-83865000D03*
X199640000Y-83865000D03*
X202180000Y-83865000D03*
X204720000Y-83865000D03*
X207260000Y-83865000D03*
X209800000Y-83865000D03*
X212340000Y-83865000D03*
X214880000Y-83865000D03*
X217420000Y-83865000D03*
X219960000Y-83865000D03*
X222500000Y-83865000D03*
X225040000Y-83865000D03*
%TD*%
M02*
